<?xml version="1.0" standalone="no"?>
<!DOCTYPE svg PUBLIC "-//W3C//DTD SVG 1.1//EN" "http://www.w3.org/Graphics/SVG/1.1/DTD/svg11.dtd" >
<svg>
<metadata>
Created by FontForge 20090914 at Wed Jan 24 07:19:35 2018
 By www-data
Copyright (c) 1985, 1987, 1989, 1990 Adobe Systems Incorporated.  All rights reserved.Helvetica is a trademark of Linotype AG and/or its subsidiaries.
</metadata>
<defs>
<font id="Helvetica" horiz-adv-x="556" >
  <font-face 
    font-family="Helvetica"
    font-weight="400"
    font-stretch="normal"
    units-per-em="1000"
    panose-1="0 0 4 0 0 0 0 0 0 0"
    ascent="800"
    descent="-200"
    x-height="523"
    cap-height="718"
    bbox="-166 -225.001 1000 931"
    underline-thickness="50"
    underline-position="-75"
    unicode-range="U+0020-U+F002"
  />
<missing-glyph horiz-adv-x="500" 
d="M63 0v779h375v-779h-375zM125 63h250v654h-250v-654z" />
    <glyph glyph-name=".notdef" horiz-adv-x="500" 
d="M63 0v779h375v-779h-375zM125 63h250v654h-250v-654z" />
    <glyph glyph-name="space" unicode=" " horiz-adv-x="278" 
 />
    <glyph glyph-name="exclam" unicode="!" horiz-adv-x="278" 
d="M187 102v-102h-97v102h97zM163 171h-49l-24 310v237h97v-237z" />
    <glyph glyph-name="quotedbl" unicode="&#x22;" horiz-adv-x="355" 
d="M70 463v255h73v-255h-73zM212 463v255h73v-255h-73z" />
    <glyph glyph-name="numbersign" unicode="#" 
d="M388 210l-29 -210h-66l29 210h-125l-29 -210h-66l29 210h-103l9 63h103l19 142h-103l9 63h103l29 210h67l-29 -210h124l29 210h67l-29 -210h103l-9 -63h-103l-20 -142h103l-9 -63h-103zM350 415h-124l-20 -142h125z" />
    <glyph glyph-name="dollar" unicode="$" 
d="M253 409v229c-36.667 0 -65.667 -11.333 -87 -34s-32 -50 -32 -82c0 -62 39.667 -99.667 119 -113zM300 308v-254c42 0 75 13 99 39c22 22.667 33 51.667 33 87c0 26.667 -7.66699 50.667 -23 72c-14.667 19.333 -33 32.333 -55 39zM503 521l-85.0029 -0.00195312
c-4 31.333 -13 55.333 -27 72c-18.667 22 -49 37 -91 45v-239c82.667 -24 136.334 -45.333 161.001 -64c39.333 -29.333 59 -75.666 59 -138.999c0 -76 -26.333 -133 -79 -171c-40 -29.333 -87 -44 -141 -44v-96h-47v96c-147.333 8 -221 85.333 -221 232h88
c3.33301 -54 14 -92 32 -114s51.667 -37 101 -45v265c-65.333 15.333 -112.666 34 -141.999 56c-43.333 32 -65 79 -65 141c0 54.667 19.833 100.834 59.5 138.501s88.834 56.5 147.501 56.5v64h47v-64c131.333 -10.667 199 -74 203 -190z" />
    <glyph glyph-name="percent" unicode="%" horiz-adv-x="889" 
d="M39 526c0 47.333 16.667 87.332 50 119.999s73.666 49 120.999 49c46.667 0 86.667 -16.5 120 -49.5s50 -72.833 50 -119.5c0 -47.333 -16.667 -87.666 -50 -120.999s-73.333 -50 -120 -50c-47.333 0 -87.666 16.5 -120.999 49.5s-50 73.5 -50 121.5zM109 525.999
c0 -30 9.83301 -54.334 29.5 -73.001s43.167 -28 70.5 -28c28.667 0 52.667 9.83301 72 29.5s29 43.5 29 71.5s-9.66699 51.5 -29 70.5s-43 28.5 -71 28.5s-51.833 -9.66699 -71.5 -29s-29.5 -42.666 -29.5 -69.999zM509 163.998c0 47.333 16.667 87.332 50 119.999
s73.666 49 120.999 49c46.667 0 86.667 -16.5 120 -49.5s50 -72.833 50 -119.5c0 -47.333 -16.667 -87.666 -50 -120.999s-73.333 -50 -120 -50c-47.333 0 -87.666 16.5 -120.999 49.5s-50 73.5 -50 121.5zM579 163.997c0 -30 9.83301 -54.334 29.5 -73.001
s43.167 -28 70.5 -28c28.667 0 52.667 9.83301 72 29.5s29 43.5 29 71.5s-9.66699 51.5 -29 70.5s-43 28.5 -71 28.5s-51.833 -9.66699 -71.5 -29s-29.5 -42.666 -29.5 -69.999zM669 702.996l-396 -722h-54l395 722h55z" />
    <glyph glyph-name="ampersand" unicode="&#x26;" horiz-adv-x="667" 
d="M417 141l-162 198c-44.667 -28.667 -74.667 -51.667 -90 -69c-22 -24.667 -33 -54.667 -33 -90c0 -40 16.667 -71 50 -93c24.667 -17.333 51 -26 79 -26c65.333 0 117.333 26.667 156 80zM286 439c60 41.333 89.999 82.667 89.999 124c0 28.667 -9.33301 50 -28 64
c-13.333 10 -29.666 15 -48.999 15c-56 0 -84 -26 -84 -78c0 -36 23.667 -77.667 71 -125zM516.999 155.001l127.998 -155.002h-114l-67 82c-28 -32 -55.667 -55 -83 -69c-35.333 -18.667 -77.333 -28 -126 -28c-78 0 -135.667 24.333 -173 73
c-25.333 34 -38 72.333 -38 115c0 50.667 10.833 91.834 32.5 123.501s64.834 65.834 129.501 102.501c-29.333 36 -48.333 62.667 -57 80c-12.667 24 -19 50.333 -19 79c0 44 14.667 81 44 111c31.333 32.667 73.333 49 126 49s93.667 -15.667 123 -47
c25.333 -27.333 38 -61 38 -101c0 -44 -15 -83.333 -45 -118c-16.667 -20 -44.667 -43.333 -84 -70l131 -156c12.667 34 22.334 71.333 29.001 112h83c-4.66699 -60 -24 -121 -58 -183z" />
    <glyph glyph-name="quotesingle" unicode="'" horiz-adv-x="191" 
d="M59 463v255h73v-255h-73z" />
    <glyph glyph-name="parenleft" unicode="(" horiz-adv-x="333" 
d="M237 733h60.999c-50.667 -96 -84 -168.667 -100 -218c-24 -76 -36 -168.667 -36 -278c0 -75.333 13 -150.333 39 -225c17.333 -52 50 -125 98 -219h-59c-59.333 89.333 -101 163.333 -125 222c-31.333 78 -47 160 -47 246c0 84.667 14.667 166 44 244
c26.667 71.333 68.334 147.333 125.001 228z" />
    <glyph glyph-name="parenright" unicode=")" horiz-adv-x="333" 
d="M96 -207h-60.998c51.333 96 84.666 168.667 99.999 218c24 76 36 168.667 36 278c0 75.333 -12.667 150.333 -38 225c-18 52 -51 125 -99 219h59c59.333 -89.333 101 -163.333 125 -222c31.333 -78 47 -160 47 -246c0 -84.667 -14.667 -166 -44 -244
c-26.667 -71.333 -68.334 -147.333 -125.001 -228z" />
    <glyph glyph-name="asterisk" unicode="*" horiz-adv-x="389" 
d="M39 591l20 55l105 -38v110h60v-110l105 38l20 -55l-108 -34l67 -92l-49 -34l-65 94l-65 -94l-49 34l67 92z" />
    <glyph glyph-name="plus" unicode="+" horiz-adv-x="584" 
d="M256 289v216h73v-216h216v-73h-216v-216h-73v216h-217v73h217z" />
    <glyph glyph-name="comma" unicode="," horiz-adv-x="278" 
d="M87 0v106.001h104v-98c0 -92.667 -34.667 -144.334 -104 -155.001v46c35.333 3.33301 53 37 53 101h-53z" />
    <glyph glyph-name="hyphen" unicode="-" horiz-adv-x="333" 
d="M289 322v-90h-245v90h245z" />
    <glyph glyph-name="hyphen" unicode="&#x2010;" horiz-adv-x="333" 
d="M289 322v-90h-245v90h245z" />
    <glyph glyph-name="period" unicode="." horiz-adv-x="278" 
d="M191 106v-106h-104v106h104z" />
    <glyph glyph-name="slash" unicode="/" horiz-adv-x="278" 
d="M295 737l-245 -756h-67l246 756h66z" />
    <glyph glyph-name="zero" unicode="0" 
d="M425 342c0 188 -49 282 -147 282s-147 -94 -147 -282s49 -282 147 -282s147 94 147 282zM519 342c0 -95.333 -15 -173.666 -45 -234.999c-40.667 -84 -106 -126 -196 -126s-155.333 42 -196 126c-30 61.333 -45 139.666 -45 234.999s15 173.666 45 234.999
c40.667 84 106 126 196 126s155.333 -42 196 -126c30 -61.333 45 -139.666 45 -234.999z" />
    <glyph glyph-name="one" unicode="1" 
d="M359 703v-703h-94v499h-164v70c62.667 4.66699 105 13.667 127 27c28 17.333 48.667 53 62 107h69z" />
    <glyph glyph-name="two" unicode="2" 
d="M132 451l-88.001 0.00390625c0 99.333 31 170 93 212c40 26.667 90 40 150 40c62.667 0 115 -19 157 -57s63 -89 63 -153c0 -56.667 -18.333 -104.334 -55 -143.001c-24.667 -26 -69 -56.667 -133 -92l-73 -40c-73.333 -40 -113.666 -85 -120.999 -135h382v-83h-481
c4 124.667 59 217.667 165 279l93 54c47.333 27.333 78.333 48.666 93 63.999c24 25.333 36 58.666 36 99.999c0 33.333 -10.333 61.666 -31 84.999c-24.667 28 -60.667 42 -108 42c-57.333 0 -97.333 -22.667 -120 -68c-12 -24 -19.333 -59 -22 -105z" />
    <glyph glyph-name="three" unicode="3" 
d="M224 324l0.00195312 75.998c20 -1.33301 35.333 -2 46 -2c89.333 0 134 38.333 134 115c0 27.333 -8.66699 51 -26 71c-22.667 26.667 -57.334 40 -104.001 40c-54 0 -92 -19 -114 -57c-12 -21.333 -19.667 -52.666 -23 -93.999h-86c0 63.333 14.667 114.666 44 153.999
c38.667 50.667 99.667 76 183 76c66.667 0 120 -17.333 160 -52c38 -34 57 -78.333 57 -133c0 -40.667 -10.333 -74.667 -31 -102c-16 -21.333 -35.667 -35.666 -59 -42.999v-2c78 -25.333 117 -80 117 -164c0 -63.333 -19.667 -115.333 -59 -156
c-45.333 -46.667 -110 -70 -194 -70c-47.333 0 -90.666 10.333 -129.999 31c-62.667 32.667 -97.667 100.334 -105 203.001h91c4.66699 -103.333 54.667 -155 150 -155c45.333 0 82.166 12.5 110.499 37.5s42.5 57.833 42.5 98.5c0 86 -54.667 129 -164 129h-20
c-8.66699 -0.666992 -15.334 -1 -20.001 -1z" />
    <glyph glyph-name="four" unicode="4" 
d="M523 171h-103v-171h-88v171h-307v86l322 446h73v-456h103v-76zM330 566l-224 -319h226v319h-2z" />
    <glyph glyph-name="five" unicode="5" 
d="M177 602l-30.001 -193c38 29.333 83.333 44 136 44c61.333 0 114 -19.333 158 -58c48.667 -42.667 73 -98.334 73 -167.001c0 -58.667 -15 -109.667 -45 -153c-44 -62.667 -114 -94 -210 -94c-56.667 0 -104 12.667 -142 38c-48.667 33.333 -77 85.333 -85 156h91
c8.66699 -78.667 58.334 -118 149.001 -118c44.667 0 80.667 16 108 48c26.667 30 40 67.667 40 113c0 48.667 -15 87.334 -45 116.001c-28.667 26.667 -65.667 40 -111 40c-52.667 0 -96 -22.333 -130 -67l-76 4l53 377h364v-86h-298z" />
    <glyph glyph-name="six" unicode="6" 
d="M503 516h-85.999c-12.667 72 -53 108 -121 108c-60 0 -105 -34 -135 -102c-21.333 -48 -32 -100.667 -32 -158l2 -2c33.333 57.333 89 86 167 86c53.333 0 100.666 -16 141.999 -48c52 -41.333 78 -99.666 78 -174.999c0 -68.667 -22.333 -127.334 -67 -176.001
c-20.667 -22.667 -42.667 -39 -66 -49c-28.667 -12.667 -66 -19 -112 -19c-77.333 0 -137.666 34 -180.999 102c-36 56.667 -54 138 -54 244c0 98 17 180 51 246c45.333 86.667 115 130 209 130c49.333 0 92.666 -13.333 129.999 -40c46 -33.333 71 -82.333 75 -147z
M141.001 216c0 -42 11.667 -77.333 35 -106c27.333 -33.333 65 -50 113 -50c42 0 75.5 14.833 100.5 44.5s37.5 68.5 37.5 116.5c0 38 -10 70.333 -30 97c-25.333 34 -62.666 51 -111.999 51c-46.667 0 -82.334 -14.5 -107.001 -43.5s-37 -65.5 -37 -109.5z" />
    <glyph glyph-name="seven" unicode="7" 
d="M37 602l0.000976562 86h486v-77c-52.667 -54.667 -103.334 -126.334 -152.001 -215.001c-69.333 -126.667 -115 -258.667 -137 -396h-97c12 94 46 199 102 315c54 110.667 115.667 206.334 185 287.001h-387z" />
    <glyph glyph-name="eight" unicode="8" 
d="M492 522c0 -68 -30 -117.333 -90 -148c76.667 -32 115 -89 115 -171c0 -62 -19 -113 -57 -153c-42.667 -46 -103 -69 -181 -69c-67.333 0 -123.666 18 -168.999 54c-48 38 -72 93.667 -72 167c0 82 39.667 139 119 171c-63.333 24 -95 69.667 -95 137
c0 47.333 14.667 88.666 44 123.999c37.333 46 93.666 69 168.999 69c72 0 127.667 -20 167 -60c33.333 -33.333 50 -73.666 50 -120.999zM277 330c-46.667 0 -83.333 -13.667 -110 -41c-23.333 -24 -35 -53.667 -35 -89c0 -36 9.66699 -66.333 29 -91
c26 -32.667 66.333 -49 121 -49c94 0 141 44.333 141 133c0 45.333 -14.333 80 -43 104c-26 22 -60.333 33 -103 33zM276.001 406c37.333 0 67.501 10.667 90.501 32s34.5 48.333 34.5 81c0 26.667 -9 49.667 -27 69c-23.333 24 -58 36 -104 36
c-42 0 -73.333 -12.667 -94 -38c-15.333 -19.333 -23 -43.333 -23 -72c0 -32 12.667 -58.333 38 -79c23.333 -19.333 51.666 -29 84.999 -29z" />
    <glyph glyph-name="nine" unicode="9" 
d="M263 235c-66 0 -119.334 20.499 -160.001 61.499s-61 96.167 -61 165.5c0 68 19.333 124.333 58 169c41.333 48 97.333 72 168 72c164 0 246 -108.667 246 -326c0 -85.333 -12.333 -160.666 -37 -225.999c-42 -113.333 -114.667 -170 -218 -170
c-73.333 0 -128.666 23 -165.999 69c-28.667 34 -43 73.667 -43 119h88c5.33301 -76.667 45 -115 119 -115c48 0 85.333 21 112 63s45.667 108.667 57 200l-2 2c-12.667 -26 -34.167 -46.5 -64.5 -61.5s-62.5 -22.5 -96.5 -22.5zM275.999 313.999
c33.333 0 61.666 9.33301 84.999 28c33.333 26.667 50 70.667 50 132c0 43.333 -11 78.333 -33 105c-25.333 30 -61.666 45 -108.999 45c-40.667 0 -73.5 -14.5 -98.5 -43.5s-37.5 -67.167 -37.5 -114.5c0 -101.333 47.667 -152 143 -152z" />
    <glyph glyph-name="colon" unicode=":" horiz-adv-x="278" 
d="M191 106v-106h-104v106h104zM191 516v-106h-104v106h104z" />
    <glyph glyph-name="semicolon" unicode=";" horiz-adv-x="278" 
d="M87 0v106.001h104v-98c0 -92.667 -34.667 -144.334 -104 -155.001v46c35.333 3.33301 53 37 53 101h-53zM191 410.001h-104v106h104v-106z" />
    <glyph glyph-name="less" unicode="&#x3c;" horiz-adv-x="584" 
d="M536 91v-80l-488 207v70l488 207v-80l-390 -162z" />
    <glyph glyph-name="equal" unicode="=" horiz-adv-x="584" 
d="M545 390v-73h-506v73h506zM545 188v-73h-506v73h506z" />
    <glyph glyph-name="greater" unicode="&#x3e;" horiz-adv-x="584" 
d="M48 415v80l488 -207v-70l-488 -207v80l390 162z" />
    <glyph glyph-name="question" unicode="?" 
d="M144 493l-88.002 -0.00195312c2 44.667 6.33301 77.334 13 98.001c11.333 34.667 33.333 64.667 66 90c40 30.667 88.333 46 145 46c59.333 0 108.666 -16.667 147.999 -50c42.667 -36 64 -84.667 64 -146c0 -31.333 -7.33301 -59 -22 -83c-12 -20 -36 -47.333 -72 -82
s-58.667 -60.334 -68 -77.001c-13.333 -25.333 -19.666 -60.666 -18.999 -105.999h-88c0 53.333 7 94.333 21 123c10.667 21.333 35.334 52 74.001 92c35.333 36.667 57 61.334 65 74.001c10 16 15 37.667 15 65c0 28 -8 52.333 -24 73
c-21.333 27.333 -53.666 41 -96.999 41c-88.667 0 -133 -52.667 -133 -158zM317.998 101.998v-102h-97v102h97z" />
    <glyph glyph-name="at" unicode="@" horiz-adv-x="1015" 
d="M611 408c0 24.667 -8.16797 46.167 -24.501 64.5s-35.5 27.5 -57.5 27.5c-42 0 -78.333 -22 -109 -66c-28 -40.667 -42 -83.667 -42 -129c0 -28.667 7.83301 -52 23.5 -70s35.834 -27 60.501 -27c40 0 75.333 23.333 106 70c28.667 42.667 43 86 43 130zM641.999 494
l20.001 62.002h68c-7.33301 -27.333 -27 -95.666 -59 -204.999c-20.667 -70 -31 -110.333 -31 -121c0 -19.333 7 -29 21 -29c34 0 66.167 22.667 96.5 68s45.5 94.666 45.5 147.999c0 78 -27.667 141 -83 189c-52.667 46 -118 69 -196 69c-88 0 -160.667 -30.833 -218 -92.5
s-86 -137.5 -86 -227.5c0 -88 30 -162 90 -222s133.667 -90 221 -90c46.667 0 91.667 10.167 135 30.5s79.333 48.166 108 83.499h67c-32.667 -54.667 -76.834 -97.667 -132.501 -129s-115.5 -47 -179.5 -47c-107.333 0 -197.833 36.667 -271.5 110
s-110.5 163.333 -110.5 270c0 104 37 192.667 111 266s162.667 110 266 110c94.667 0 175 -29.333 241 -88c68.667 -60 103 -134.667 103 -224c0 -82.667 -28.667 -153.334 -86 -212.001c-50 -51.333 -101 -77 -153 -77c-40.667 0 -62 21 -64 63l-2 -1
c-38.667 -41.333 -78.667 -62 -120 -62c-42 0 -77 15.667 -105 47s-42 69 -42 113c0 71.333 21 134.333 63 189c45.333 58 101.333 87 168 87c52.667 0 91 -26 115 -78z" />
    <glyph glyph-name="A" unicode="A" horiz-adv-x="667" 
d="M477 209h-288l-75 -209h-100l270 718h110l260 -718h-106zM219 295h223l-106 316h-2z" />
    <glyph glyph-name="B" unicode="B" horiz-adv-x="667" 
d="M171 635v-221h175c100 0 150 38.667 150 116c0 70 -49.667 105 -149 105h-176zM74 0l0.000976562 718h316c64 0 114.667 -18 152 -54c34 -32.667 51 -75 51 -127c0 -70 -32 -120 -96 -150c37.333 -15.333 65 -31.333 83 -48c31.333 -31.333 47 -73.666 47 -126.999
c0 -60.667 -20.667 -110.334 -62 -149.001c-44.667 -42 -105.334 -63 -182.001 -63h-309zM171.001 335v-252h207c49.333 0 87 11.667 113 35s39 55.333 39 96c0 80.667 -56 121 -168 121h-191z" />
    <glyph glyph-name="C" unicode="C" horiz-adv-x="722" 
d="M674 502l-94 -0.000976562c-21.333 99.333 -88.333 149 -201 149c-68 0 -123.333 -24 -166 -72c-46 -51.333 -69 -122.333 -69 -213c0 -199.333 79.333 -299 238 -299c42.667 0 80.667 12 114 36c46 33.333 76.333 87 91 161h94c-17.333 -115.333 -68 -196.333 -152 -243
c-48 -26.667 -102 -40 -162 -40c-90.667 0 -165 29.333 -223 88c-66.667 67.333 -100 165.333 -100 294c0 112 30 202.333 90 271s141.667 103 245 103c87.333 0 158 -24 212 -72c48 -43.333 75.667 -97.666 83 -162.999z" />
    <glyph glyph-name="D" unicode="D" horiz-adv-x="722" 
d="M81 0v718h291c92.667 0 166.167 -32 220.5 -96s81.5 -148.333 81.5 -253c0 -97.333 -21.333 -179 -64 -245c-54 -82.667 -134.667 -124 -242 -124h-287zM178 635l-0.000976562 -552h188c64 0 114.667 24.333 152 73s56 117.667 56 207c0 88.667 -19.333 156.667 -58 204
c-37.333 45.333 -89.666 68 -156.999 68h-181z" />
    <glyph glyph-name="E" unicode="E" horiz-adv-x="667" 
d="M616 86v-86h-530v718h523v-86h-426v-220h393v-86h-393v-240h433z" />
    <glyph glyph-name="F" unicode="F" horiz-adv-x="611" 
d="M183 326v-326h-97v718h497v-86h-400v-220h352v-86h-352z" />
    <glyph glyph-name="G" unicode="G" horiz-adv-x="778" 
d="M389 301v83h315v-384h-63l-23 93c-24.667 -34 -58.167 -61.167 -100.5 -81.5s-87.833 -30.5 -136.5 -30.5c-90 0 -163.333 27 -220 81c-48 46 -80.667 100 -98 162c-10 37.333 -15 84.333 -15 141c0 98 27.333 182 82 252c63.333 80 149.333 120 258 120
c73.333 0 138 -19.333 194 -58c63.333 -44 100 -103.667 110 -179h-94c-24.667 100.667 -96.334 151 -215.001 151c-67.333 0 -122.666 -25 -165.999 -75c-46 -53.333 -69 -125.333 -69 -216c0 -197.333 79.667 -296 239 -296c59.333 0 108.333 15.333 147 46
c52.667 42 79 105.667 79 191h-224z" />
    <glyph glyph-name="H" unicode="H" horiz-adv-x="722" 
d="M549 421v297h97v-718h-97v335h-375v-335h-97v718h97v-297h375z" />
    <glyph glyph-name="I" unicode="I" horiz-adv-x="278" 
d="M188 718v-718h-97v718h97z" />
    <glyph glyph-name="J" unicode="J" horiz-adv-x="500" 
d="M17 231h91v-50c0 -78 36 -117 108 -117c76.667 0 115 41.333 115 124v530h97v-524c0 -76.667 -22.333 -133 -67 -169c-36 -29.333 -82.667 -44 -140 -44c-74 0 -129 21.333 -165 64c-26 32 -39 70.333 -39 115v71z" />
    <glyph glyph-name="K" unicode="K" horiz-adv-x="667" 
d="M173 252v-252h-97v718h97v-348l348 348h134l-299 -290l307 -428h-126l-251 360z" />
    <glyph glyph-name="L" unicode="L" 
d="M173 718v-632h364v-86h-461v718h97z" />
    <glyph glyph-name="M" unicode="M" horiz-adv-x="833" 
d="M761 0h-94v424c0 3.33301 0.333008 27.5 1 72.5s1 80.5 1 106.5h-2l-202 -603h-96l-202 602h-2c0 -26 0.333008 -61.333 1 -106s1 -68.667 1 -72v-424h-94v718h139l205 -607h2l204 607h138v-718z" />
    <glyph glyph-name="N" unicode="N" horiz-adv-x="722" 
d="M552 138v580h94v-718h-109l-365 580h-2v-580h-94v718h115l359 -580h2z" />
    <glyph glyph-name="O" unicode="O" horiz-adv-x="778" 
d="M639 359c0 86 -22 155.667 -66 209c-46 55.333 -107.333 83 -184 83s-137.5 -27.167 -182.5 -81.5s-67.5 -124.5 -67.5 -210.5s22.333 -155.667 67 -209c45.333 -55.333 106.333 -83 183 -83s138 27.667 184 83c44 53.333 66 123 66 209zM739 359
c0 -95.333 -24.667 -177.666 -74 -246.999c-63.333 -87.333 -155.333 -131 -276 -131s-212.334 43.667 -275.001 131c-50 69.333 -75 151.666 -75 246.999s25 177.666 75 246.999c62.667 87.333 154.334 131 275.001 131s212.667 -43.667 276 -131
c49.333 -69.333 74 -151.666 74 -246.999z" />
    <glyph glyph-name="P" unicode="P" horiz-adv-x="667" 
d="M183 635v-249h193c97.333 0 146 43 146 129c0 80 -47.333 120 -142 120h-197zM183 303l0.000976562 -303h-97v718h323c65.333 0 117.166 -18.833 155.499 -56.5s57.5 -86.167 57.5 -145.5c0 -57.333 -16 -105.333 -48 -144c-38 -46 -93 -69 -165 -69h-226z" />
    <glyph glyph-name="Q" unicode="Q" horiz-adv-x="778" 
d="M420 148l49 60l91 -71c52.667 52.667 79 126.667 79 222c0 86 -22 155.667 -66 209c-46 55.333 -107.333 83 -184 83s-137.5 -27.167 -182.5 -81.5s-67.5 -124.5 -67.5 -210.5s22.333 -155.667 67 -209c45.333 -55.333 106.333 -83 183 -83c40 0 75.333 7.66699 106 23z
M733 2l-49 -57.999l-110 85c-50 -32 -111.667 -48 -185 -48c-120.667 0 -212.334 43.667 -275.001 131c-50 69.333 -75 151.666 -75 246.999s25 177.666 75 246.999c62.667 87.333 154.334 131 275.001 131s212.667 -43.667 276 -131
c49.333 -69.333 74 -151.666 74 -246.999c0 -117.333 -34.667 -211 -104 -281z" />
    <glyph glyph-name="R" unicode="R" horiz-adv-x="722" 
d="M185 308v-308.001h-97v718h332c157.333 0 236 -64.333 236 -193c0 -47.333 -11 -86 -33 -116c-14 -19.333 -36.333 -38 -67 -56c26.667 -11.333 45.667 -23.333 57 -36c17.333 -21.333 27 -54.333 29 -99l6 -130c0.666992 -21.333 3.16699 -36.666 7.5 -45.999
s13.833 -18 28.5 -26v-16h-119c-11.333 35.333 -17 95.333 -17 180c0 38 -6.66699 66.667 -20 86c-20 28 -56 42 -108 42h-235zM185 634.999v-244h225c97.333 0 146 41.333 146 124c0 80 -43 120 -129 120h-242z" />
    <glyph glyph-name="S" unicode="S" horiz-adv-x="667" 
d="M600 508h-91.001c-2 50.667 -22 89 -60 115c-31.333 20.667 -70.666 31 -117.999 31c-109.333 0 -164 -42 -164 -126c0 -48 28.333 -78.333 85 -91l205 -47c108.667 -24.667 163 -88.667 163 -192c0 -76.667 -31.333 -134 -94 -172c-50 -30 -112.333 -45 -187 -45
c-94 0 -166.333 23 -217 69c-48.667 44 -73 104.667 -73 182h91c0 -59.333 21.667 -103.666 65 -132.999c34.667 -23.333 79 -35 133 -35c48 0 88 7.33301 120 22c45.333 20.667 68 53.667 68 99c0 36.667 -10.5 63.5 -31.5 80.5s-61.5 32.5 -121.5 46.5l-147 34
c-102 23.333 -153 79.666 -153 168.999c0 62 19.333 113 58 153c44.667 46 107.667 69 189 69c178.667 0 272 -76.333 280 -229z" />
    <glyph glyph-name="T" unicode="T" horiz-adv-x="611" 
d="M14 632v86h583v-86h-243v-632h-97v632h-243z" />
    <glyph glyph-name="U" unicode="U" horiz-adv-x="722" 
d="M547 718h97v-466c0 -78 -23.667 -141.667 -71 -191c-51.333 -53.333 -124 -80 -218 -80c-90.667 0 -160.667 26.333 -210 79c-44 46.667 -66 106.334 -66 179.001v479h97v-452c0 -71.333 19.333 -124 58 -158c31.333 -27.333 72.666 -41 123.999 -41
c52.667 0 95.334 13.333 128.001 40c40.667 33.333 61 85.666 61 156.999v454z" />
    <glyph glyph-name="V" unicode="V" horiz-adv-x="667" 
d="M335 106l203 612h109l-262 -718h-103l-262 718h108l205 -612h2z" />
    <glyph glyph-name="W" unicode="W" horiz-adv-x="944" 
d="M471 595l-166 -595h-102l-187 718h105l134 -584h2l161 584h106l161 -584h2l134 584h107l-189 -718h-102l-164 595h-2z" />
    <glyph glyph-name="X" unicode="X" horiz-adv-x="667" 
d="M396 368l252 -368h-120l-193 295l-199 -295h-117l257 368l-241 350h122l182 -275l182 275h116z" />
    <glyph glyph-name="Y" unicode="Y" horiz-adv-x="667" 
d="M382 289v-289h-97v289l-271 429h113l206 -345l206 345h114z" />
    <glyph glyph-name="Z" unicode="Z" horiz-adv-x="611" 
d="M588 86v-86h-565v81l440 551h-407v86h532v-84l-442 -548h442z" />
    <glyph glyph-name="bracketleft" unicode="[" horiz-adv-x="278" 
d="M142 651v-776h108v-71h-187v918h187v-71h-108z" />
    <glyph glyph-name="backslash" unicode="\" horiz-adv-x="278" 
d="M228 -19l-245 756h66l246 -756h-67z" />
    <glyph glyph-name="bracketright" unicode="]" horiz-adv-x="278" 
d="M136 -125v776h-108v71h187v-918h-187v71h108z" />
    <glyph glyph-name="asciicircum" unicode="^" horiz-adv-x="469" 
d="M483 264h-77l-171 344l-171 -344h-78l213 424h72z" />
    <glyph glyph-name="underscore" unicode="_" 
d="M556 -125h-556v50h556v-50z" />
    <glyph glyph-name="grave" unicode="`" horiz-adv-x="333" 
d="M144 593l-130 141h108l89 -141h-67z" />
    <glyph glyph-name="a" unicode="a" 
d="M143 364h-81c4 116 76 174 216 174c42 0 79.667 -7.66699 113 -23c54 -24.667 81 -65.667 81 -123v-301c0 -20.667 9.66699 -31 29 -31c6 0 15.667 1.33301 29 4v-64c-24.667 -6.66699 -40.667 -10 -48 -10c-58 0 -89 26.667 -93 80c-52 -56.667 -115 -85 -189 -85
c-48 0 -87.333 14 -118 42s-46 64.333 -46 109c0 96 53 150.667 159 164l145 18c30.667 4 46 24.667 46 62c0 56.667 -41 85 -123 85c-70 0 -110 -33.667 -120 -101zM384 181v86c-14 -11.333 -62.333 -22.333 -145 -33c-74.667 -10 -112 -38.333 -112 -85
c0 -60.667 31.667 -91 95 -91c42 0 79.5 12 112.5 36s49.5 53 49.5 87z" />
    <glyph glyph-name="b" unicode="b" 
d="M141 0h-82.998v718h88v-261h2c37.333 54 87.666 81 150.999 81c67.333 0.666992 121 -24.333 161 -75c38 -48 57 -110 57 -186s-16 -140.333 -48 -193c-40.667 -66 -101.334 -99 -182.001 -99c-62.667 0 -110.667 26.667 -144 80h-2v-65zM426.002 263
c0 130.667 -47.667 196 -143 196c-94 0 -141 -74 -141 -222c0 -62 17 -108.667 51 -140c25.333 -24 56 -36 92 -36c46 0 81.667 19.333 107 58c22.667 35.333 34 83.333 34 144z" />
    <glyph glyph-name="c" unicode="c" horiz-adv-x="500" 
d="M477 347h-85c-12 74.667 -53.333 112 -124 112c-50 0 -87.667 -21.333 -113 -64c-20.667 -34.667 -31 -79 -31 -133c0 -134 47.667 -201 143 -201c30 0 56.5 10.833 79.5 32.5s38.167 52.167 45.5 91.5h85c-5.33301 -52 -22.666 -95.667 -51.999 -131
c-38.667 -46 -92.334 -69 -161.001 -69c-72 0 -129 24.333 -171 73s-63 111.667 -63 189c0 86 20.333 154.667 61 206c44 56.667 107.333 85 190 85c62.667 0 111.667 -20.333 147 -61c28.667 -34 45 -77.333 49 -130z" />
    <glyph glyph-name="d" unicode="d" 
d="M499 718l0.000976562 -718h-83v72h-2c-31.333 -58 -81 -87 -149 -87c-80.667 0 -141.334 33 -182.001 99c-32 52.667 -48 117 -48 193s19.5 138.5 58.5 187.5s92.167 73.5 159.5 73.5c62.667 0 114.667 -29.667 156 -89l2 7v262h88zM126.001 263
c0 -60.667 11.667 -108.667 35 -144c24.667 -38.667 60 -58 106 -58c36 0 67 12 93 36c33.333 31.333 50 78 50 140c0 148 -47 222 -141 222c-95.333 0 -143 -65.333 -143 -196z" />
    <glyph glyph-name="e" unicode="e" 
d="M421 164l88 -0.000976562c-2 -18.667 -9.66699 -40 -23 -64c-18 -33.333 -41.333 -59.666 -70 -78.999c-36 -24 -83.333 -36 -142 -36c-72 0 -129 24.333 -171 73s-63 111.667 -63 189c0 86 20.333 154.667 61 206c44 56.667 107.333 85 190 85
c74 0 130 -27.167 168 -81.5s57 -128.833 57 -223.5h-382c0 -114.667 50.667 -172 152 -172c38 0 70.667 12.333 98 37c22.667 21.333 35 43.333 37 66zM134 302.999l291.001 -0.000976562c-6.66699 104 -55.334 156 -146.001 156c-40 0 -74.167 -15.667 -102.5 -47
s-42.5 -67.666 -42.5 -108.999z" />
    <glyph glyph-name="f" unicode="f" horiz-adv-x="278" 
d="M262 450h-88v-450h-88v450h-72v73h72v90c0 76.667 45.333 115 136 115c8 0 21.333 -0.666992 40 -2v-79c-14.667 1.33301 -26.667 2 -36 2c-34.667 0 -52 -20.333 -52 -61v-65h88v-73z" />
    <glyph glyph-name="g" unicode="g" 
d="M131 263c0 -60.667 11.667 -108.667 35 -144c24.667 -38.667 60 -58 106 -58c36 0 67 12 93 36c33.333 31.333 50 78 50 140c0 148 -47 222 -141 222c-95.333 0 -143 -65.333 -143 -196zM499 523l0.000976562 -480c0 -68.667 -10.333 -122 -31 -160
c-37.333 -68.667 -108 -103 -212 -103c-120.667 0 -187.334 52 -200.001 156h88c10.667 -55.333 50 -83 118 -83c66 0 110 23 132 69c11.333 24 17 62.333 17 115v22h-2v-4c-29.333 -46.667 -75.666 -70 -138.999 -70c-80.667 0 -141.334 33 -182.001 99
c-32 52.667 -48 117 -48 193s19.5 138.5 58.5 187.5s92.167 73.5 159.5 73.5c62.667 0 114.667 -29.667 156 -89h2v74h83z" />
    <glyph glyph-name="h" unicode="h" 
d="M491 356l-0.000976562 -355.999h-88v342c0 38.667 -6.66699 67 -20 85c-16.667 21.333 -44.667 32 -84 32c-41.333 0 -74.666 -12.333 -99.999 -37c-30.667 -30.667 -46 -76.334 -46 -137.001v-285h-88v718h88v-265h2c42.667 56.667 93.667 85 153 85
c50 0 90.667 -11.667 122 -35c40.667 -30.667 61 -79.667 61 -147z" />
    <glyph glyph-name="i" unicode="i" horiz-adv-x="222" 
d="M155 523v-523h-88v523h88zM155 618h-88v100h88v-100z" />
    <glyph glyph-name="j" unicode="j" horiz-adv-x="222" 
d="M155 523l-0.000976562 -600c0 -88.667 -44.667 -133 -134 -133c-11.333 0 -23.666 1 -36.999 3v76h18c27.333 0 45 3.5 53 10.5s12 24.833 12 53.5v590h88zM154.999 718v-100h-88v100h88z" />
    <glyph glyph-name="k" unicode="k" horiz-adv-x="500" 
d="M289 328l212 -328h-113l-163 264l-73 -66v-198h-85v718h85v-416l225 221h112z" />
    <glyph glyph-name="l" unicode="l" horiz-adv-x="222" 
d="M155 718v-718h-88v718h88z" />
    <glyph glyph-name="m" unicode="m" horiz-adv-x="833" 
d="M65 0l-0.000976562 523.002h83v-74h2c40 59.333 92.667 89 158 89c62 0 108.333 -28.333 139 -85c26.667 30 48.667 50.333 66 61c26 16 57.333 24 94 24c39.333 0 73.333 -11 102 -33c40 -30.667 60 -78.334 60 -143.001v-362h-88v338c0 80.667 -32.333 121 -97 121
c-35.333 0 -64.666 -14.167 -87.999 -42.5s-35 -60.833 -35 -97.5v-319h-88v362c0 64.667 -27.333 97 -82 97c-34 0 -63.333 -11.333 -88 -34c-33.333 -30.667 -50 -77.334 -50 -140.001v-285h-88z" />
    <glyph glyph-name="n" unicode="n" 
d="M491 356v-355.999h-88v322c0 47.333 -8.33301 82 -25 104s-45.667 33 -87 33c-34 0 -63.333 -11.333 -88 -34c-33.333 -30.667 -50 -77.334 -50 -140.001v-285h-88v523h83v-74h2c40 59.333 92.667 89 158 89c50 0 90.667 -11.667 122 -35
c40.667 -30.667 61 -79.667 61 -147z" />
    <glyph glyph-name="o" unicode="o" 
d="M35 262c0 74.667 19.667 137.667 59 189c44.667 58 106 87 184 87s139.333 -29 184 -87c39.333 -51.333 59 -114.333 59 -189s-19.667 -137.667 -59 -189c-44.667 -58 -106 -87 -184 -87s-139.333 29 -184 87c-39.333 51.333 -59 114.333 -59 189zM126 262
c0 -48.667 9.66699 -90.667 29 -126c26.667 -49.333 67.667 -74 123 -74s96.333 24.667 123 74c19.333 35.333 29 77.333 29 126s-9.66699 90.667 -29 126c-26.667 49.333 -67.667 74 -123 74s-96.333 -24.667 -123 -74c-19.333 -35.333 -29 -77.333 -29 -126z" />
    <glyph glyph-name="p" unicode="p" 
d="M142 237c0 -62 17 -108.667 51 -140c25.333 -24 56 -36 92 -36c46 0 81.667 19.333 107 58c22.667 35.333 34 83.333 34 144c0 130.667 -47.667 196 -143 196c-94 0 -141 -74 -141 -222zM58 -207v730h83v-74h2c41.333 59.333 93.333 89 156 89c67.333 0 121 -25 161 -75
c38 -48 57 -110 57 -186s-16 -140.333 -48 -193c-40.667 -66 -101.334 -99 -182.001 -99c-63.333 0 -109.666 23.333 -138.999 70h-2v-262h-88z" />
    <glyph glyph-name="q" unicode="q" 
d="M494 523v-730h-88v262h-2c-29.333 -46.667 -75.666 -70 -138.999 -70c-80.667 0 -141.334 33 -182.001 99c-32 52.667 -48 117 -48 193s19.5 138.5 58.5 187.5s92.167 73.5 159.5 73.5c62.667 0 114.667 -29.667 156 -89h2v74h83zM410 237c0 148 -47 222 -141 222
c-95.333 0 -143 -65.333 -143 -196c0 -60.667 11.667 -108.667 35 -144c24.667 -38.667 60 -58 106 -58c36 0 67 12 93 36c33.333 31.333 50 78 50 140z" />
    <glyph glyph-name="r" unicode="r" horiz-adv-x="333" 
d="M165 304l-0.000976562 -304h-88v523h83v-87h2c39.333 68 88.333 102 147 102c8.66699 0 16.334 -1 23.001 -3v-91h-33c-40 0 -72.333 -13.5 -97 -40.5s-37 -60.167 -37 -99.5z" />
    <glyph glyph-name="s" unicode="s" horiz-adv-x="500" 
d="M447 374l-84.9971 -0.00195312c-2 58.667 -43.333 88 -124 88c-27.333 0 -50.333 -5.33301 -69 -16c-23.333 -13.333 -35 -32.666 -35 -57.999c0 -20 7.33301 -35 22 -45c11.333 -7.33301 35.666 -15.666 72.999 -24.999l88 -22c54 -13.333 92 -30.666 114 -51.999
s33 -50 33 -86c0 -52.667 -19.333 -94.667 -58 -126s-88.334 -47 -149.001 -47c-144 0 -219 61 -225 183h85c5.33301 -71.333 51.666 -107 138.999 -107c34 0 62.5 7 85.5 21s34.5 34.667 34.5 62c0 20 -7.5 35 -22.5 45s-42.167 20 -81.5 30l-102 25
c-80.667 20 -121 62.333 -121 127c0 54 20 96.333 60 127c36 26.667 82 40 138 40c79.333 0 136 -24 170 -72c20 -28.667 30 -59.334 30 -92.001z" />
    <glyph glyph-name="t" unicode="t" horiz-adv-x="278" 
d="M257 450h-84v-340c0 -27.333 17.667 -41 53 -41h31v-69c-50 -4.66699 -72 -7 -66 -7c-70.667 0 -106 37.333 -106 112v345h-71v73h71v146h88v-146h84v-73z" />
    <glyph glyph-name="u" unicode="u" 
d="M489 0l-83.001 -0.000976562v76l-2 2c-37.333 -62 -92.666 -93 -165.999 -93c-46 0 -84 11.333 -114 34c-37.333 28.667 -56 71.334 -56 128.001v376h88v-347c0 -76.667 33.667 -115 101 -115c50.667 0 88.667 19.667 114 59c20 30.667 30 69 30 115v288h88v-523z" />
    <glyph glyph-name="v" unicode="v" horiz-adv-x="500" 
d="M248 97l148 426h96l-199 -523h-94l-191 523h102l136 -426h2z" />
    <glyph glyph-name="w" unicode="w" horiz-adv-x="722" 
d="M358 405l-102 -405h-91l-151 523h96l100 -411h2l101 411h98l102 -411h2l106 411h88l-152 -523h-91l-106 405h-2z" />
    <glyph glyph-name="x" unicode="x" horiz-adv-x="500" 
d="M306 269l184 -269h-112l-130 197l-126 -197h-111l184 269l-175 254h113l121 -184l121 184h108z" />
    <glyph glyph-name="y" unicode="y" horiz-adv-x="500" 
d="M252 97l139.999 425.999h97l-188 -513c-30 -77.333 -51.667 -128 -65 -152c-16.667 -31.333 -35 -51.666 -55 -60.999c-16 -7.33301 -44.333 -11 -85 -11c-6 0 -18.333 2.66699 -37 8v80c16.667 -6 34.334 -9 53.001 -9c22 0 38 6.66699 48 20c8 11.333 23 45 45 101
l-194 537h100l139 -426h2z" />
    <glyph glyph-name="z" unicode="z" horiz-adv-x="500" 
d="M460 451l-312 -378h321v-73h-438v69l315 381h-291v73h405v-72z" />
    <glyph glyph-name="braceleft" unicode="{" horiz-adv-x="334" 
d="M42 234l-0.000976562 60.001c23.333 0 42.666 12 57.999 36s23 54.333 23 91v172c0 39.333 10.667 71 32 95c19.333 22.667 42.666 34 69.999 34h67v-65h-44c-30.667 0 -46 -27.333 -46 -82v-170c0 -42.667 -12 -77.667 -36 -105
c-17.333 -18.667 -34.666 -30.334 -51.999 -35.001v-2c18.667 -5.33301 36 -17 52 -35c24 -27.333 36 -63.333 36 -108v-169c0 -54.667 15.333 -82 46 -82h44v-65h-67c-27.333 0 -50.666 11.333 -69.999 34c-21.333 24 -32 55.667 -32 95v171
c0 37.333 -7.66699 68.333 -23 93s-34.666 37 -57.999 37z" />
    <glyph glyph-name="bar" unicode="|" horiz-adv-x="260" 
d="M94 -19v756h73v-756h-73z" />
    <glyph glyph-name="braceright" unicode="}" horiz-adv-x="334" 
d="M292 294v-60.0029c-23.333 0 -42.666 -12.333 -57.999 -37s-23 -55.667 -23 -93v-171c0 -39.333 -10.167 -70.666 -30.5 -93.999s-44.166 -35 -71.499 -35h-67v65h44c30.667 0 46 27.333 46 82v169c0 44.667 12.333 80.667 37 108c15.333 18 32.333 29.667 51 35v2
c-17.333 4.66699 -34.333 16.334 -51 35.001c-24.667 27.333 -37 62.333 -37 105v170c0 54.667 -15.333 82 -46 82h-44v65h67c27.333 0 51.166 -11.667 71.499 -35s30.5 -54.666 30.5 -93.999v-172c0 -36.667 7.66699 -67 23 -91s34.666 -36 57.999 -36z" />
    <glyph glyph-name="asciitilde" unicode="~" horiz-adv-x="584" 
d="M487 326l36.001 -56c-36 -57.333 -77.667 -86 -125 -86c-28 0 -62 11 -102 33c-42 23.333 -80.333 35 -115 35c-34 0 -62 -24 -84 -72l-36 56c30 57.333 71.667 86 125 86c27.333 0 64.333 -10.667 111 -32c52.667 -24 86.667 -36 102 -36c27.333 0 56.666 24 87.999 72z
" />
    <glyph glyph-name="exclamdown" unicode="&#xa1;" horiz-adv-x="333" 
d="M118 421v102h97v-102h-97zM142 352h49l24 -310v-237h-97v237z" />
    <glyph glyph-name="cent" unicode="&#xa2;" 
d="M212 78l108 381c-5.33301 2 -15 3 -29 3c-45.333 0 -81.333 -17 -108 -51c-29.333 -38 -44 -93.333 -44 -166c0 -36 6.83301 -69.5 20.5 -100.5s31.167 -53.167 52.5 -66.5zM509 345h-82.001c-13.333 56 -36 90 -68 102l-110 -386c8.66699 -2.66699 20.334 -4 35.001 -4
c76.667 0 124.667 42 144 126h85c-6 -49.333 -24.333 -92 -55 -128c-41.333 -49.333 -98.333 -74 -171 -74c-10.667 0 -30.667 2.33301 -60 7l-31 -103h-41l34 114c-92 44 -138 126 -138 246c0 93.333 21.5 165.5 64.5 216.5s103.5 76.5 181.5 76.5c18.667 0 33 -2 43 -6
l26 91h39l-25 -100c26.667 -7.33301 51.334 -23 74.001 -47c31.333 -34 49.666 -77.667 54.999 -131z" />
    <glyph glyph-name="sterling" unicode="&#xa3;" 
d="M204 380l167 -0.000976562v-63h-138c6 -22.667 9 -44.667 9 -66c0 -30.667 -9.66699 -61.667 -29 -93c-22 -35.333 -52.667 -66.333 -92 -93l2 2v-2c43.333 24.667 87 37 131 37c22.667 0 53.334 -5.83301 92.001 -17.5s64 -17.5 76 -17.5c30 0 55.333 10.333 76 31
l41 -66c-42 -32 -84.333 -48 -127 -48c-18.667 0 -51.667 7.5 -99 22.5s-84 22.5 -110 22.5c-35.333 0 -74.333 -13.333 -117 -40l-49 69c45.333 30 78.666 65.333 99.999 106c14.667 28.667 22 55.667 22 81c0 19.333 -6.33301 43.333 -19 72h-107v63h69
c-28.667 58.667 -43 103.334 -43 134.001c0 52 17 96.333 51 133c44 47.333 109.333 71 196 71c70.667 0 125.334 -22.333 164.001 -67c34 -39.333 51 -88 51 -146v-15h-88v9c0 42 -12.667 76.333 -38 103s-58.333 40 -99 40c-48.667 0 -86.334 -15.333 -113.001 -46
c-20 -24 -30 -49.667 -30 -77c0 -30.667 17 -77 51 -139z" />
    <glyph glyph-name="currency" unicode="&#xa4;" 
d="M480 603l48.002 -48l-55 -54c33.333 -38 50 -88 50 -150c0 -59.333 -16.667 -109.666 -50 -150.999l54 -56l-45 -45l-55 58c-39.333 -36.667 -89 -55 -149 -55s-109.667 18.333 -149 55l-55 -58l-45 45l54 56c-33.333 41.333 -50 91.666 -50 150.999
c0 62 16.667 112 50 150l-55 54l48 48l57 -56c39.333 34 87.666 51 144.999 51s105.666 -17 144.999 -51zM106.002 351c0 -48.667 16.833 -90.667 50.5 -126s74.167 -53 121.5 -53s87.833 17.667 121.5 53s50.5 77.333 50.5 126c0 47.333 -16.833 88.666 -50.5 123.999
s-74.167 53 -121.5 53s-87.833 -17.667 -121.5 -53s-50.5 -76.666 -50.5 -123.999z" />
    <glyph glyph-name="yen" unicode="&#xa5;" 
d="M42 327v57h154l-193 304h100l175 -295l175 295h100l-193 -304h155v-57h-193v-85h193v-57h-193v-185h-88v185h-192v57h192v85h-192z" />
    <glyph glyph-name="brokenbar" unicode="&#xa6;" horiz-adv-x="260" 
d="M94 -19v294h73v-294h-73zM94 460v277h73v-277h-73z" />
    <glyph glyph-name="section" unicode="&#xa7;" 
d="M460 554l-85.001 -0.000976562c-4.66699 71.333 -37.667 107 -99 107c-23.333 0 -43.666 -6 -60.999 -18c-20.667 -14.667 -31 -35.667 -31 -63c0 -31.333 24.333 -61.333 73 -90l146 -86c72.667 -42.667 109 -96 109 -160c0 -63.333 -34.333 -116.666 -103 -159.999
c34.667 -36.667 52 -74.667 52 -114c0 -48.667 -19.667 -88.334 -59 -119.001c-35.333 -28 -76 -42 -122 -42c-59.333 0 -106 14.667 -140 44c-38 32.667 -57 80.667 -57 144h88c0 -74.667 32.333 -112 97 -112c70 0 105 27.667 105 83c0 28 -18.333 54.333 -55 79l-210 140
c-43.333 28.667 -65 69.334 -65 122.001c0 39.333 9.33301 72 28 98c14.667 20.667 38.667 40.667 72 60c-31.333 34 -47 67.333 -47 100c0 43.333 13.667 81 41 113c32.667 38 79 57 139 57c49.333 0 90 -12 122 -36c41.333 -31.333 62 -80.333 62 -147zM366.999 320.999
l-174 106.999c-44.667 -22.667 -67 -55 -67 -97c0 -37.333 15 -65.666 45 -84.999l189 -122c46 30 69 63.667 69 101c0 38.667 -20.667 70.667 -62 96z" />
    <glyph glyph-name="dieresis" unicode="&#xa8;" horiz-adv-x="333" 
d="M131 706v-102h-91v102h91zM293 706v-102h-91v102h91z" />
    <glyph glyph-name="copyright" unicode="&#xa9;" horiz-adv-x="737" 
d="M370 -19c-105.333 0 -195.666 36.167 -270.999 108.5s-113 162.5 -113 270.5c0 107.333 37.667 197 113 269s165.666 108 270.999 108c104.667 0 194 -35.667 268 -107c76 -73.333 114 -163.333 114 -270c0 -108 -37.5 -198.167 -112.5 -270.5
s-164.833 -108.5 -269.5 -108.5zM62 360c0 -90.667 29.5 -166 88.5 -226s132.167 -90 219.5 -90c86 0 158.5 30 217.5 90s88.5 135.333 88.5 226c0 89.333 -29.5 164 -88.5 224s-131.5 90 -217.5 90c-86.667 0 -159.667 -30 -219 -90s-89 -134.667 -89 -224zM501 289
l67.999 0.000976562c-9.33301 -49.333 -31 -88.5 -65 -117.5s-74.333 -43.5 -121 -43.5c-66.667 0 -120.5 22.167 -161.5 66.5s-61.5 99.833 -61.5 166.5c0 68 19.833 123.5 59.5 166.5s92.834 64.5 159.501 64.5c49.333 0 91 -13.333 125 -40
c36 -28.667 57.333 -67.667 64 -117h-67c-6 28 -19.833 50.167 -41.5 66.5s-48.167 24.5 -79.5 24.5c-45.333 0 -80.666 -15.333 -105.999 -46s-38 -70 -38 -118c0 -46.667 13.5 -86.334 40.5 -119.001s62.5 -49 106.5 -49c31.333 0 57.666 8.83301 78.999 26.5
s34.333 40.5 39 68.5z" />
    <glyph glyph-name="ordfeminine" unicode="&#xaa;" horiz-adv-x="370" 
d="M346 454l0.00292969 -43.999c-16.667 -3.33301 -27.334 -5 -32.001 -5c-37.333 0 -57.333 17 -60 51c-34 -34 -75 -51 -123 -51c-31.333 0 -57 8.5 -77 25.5s-30 38.833 -30 65.5c0 59.333 37.333 93.333 112 102l88 10c16 2 24 14.667 24 38c0 26 -25.333 39 -76 39
c-46.667 0 -72.334 -17.667 -77.001 -53h-54c2.66699 70 49.667 105 141 105c27.333 0 52 -4.66699 74 -14c35.333 -14.667 53 -39.334 53 -74.001v-178c0 -12.667 6 -19 18 -19c3.33301 0 9.66602 0.666992 18.999 2zM145.003 457.001c27.333 0 51.334 7.16699 72.001 21.5
s31 31.833 31 52.5v39c-6.66699 -6.66699 -37.334 -13.334 -92.001 -20.001c-46 -5.33301 -69 -19.666 -69 -42.999c0 -33.333 19.333 -50 58 -50zM35.0039 352.001h296v-48h-296v48z" />
    <glyph glyph-name="guillemotleft" unicode="&#xab;" 
d="M254 196v-88l-157 123v92l157 123v-88l-105 -81zM459 196v-88l-157 123v92l157 123v-88l-105 -81z" />
    <glyph glyph-name="logicalnot" unicode="&#xac;" horiz-adv-x="584" 
d="M472 108v209h-433v73h506v-282h-73z" />
    <glyph glyph-name="minus" unicode="&#xad;" horiz-adv-x="584" 
d="M545 216h-506v73h506v-73z" />
    <glyph glyph-name="minus" unicode="&#x2212;" horiz-adv-x="584" 
d="M545 216h-506v73h506v-73z" />
    <glyph glyph-name="registered" unicode="&#xae;" horiz-adv-x="737" 
d="M370 -19c-105.333 0 -195.666 36.167 -270.999 108.5s-113 162.5 -113 270.5c0 107.333 37.667 197 113 269s165.666 108 270.999 108c104.667 0 194 -35.667 268 -107c76 -73.333 114 -163.333 114 -270c0 -108 -37.5 -198.167 -112.5 -270.5
s-164.833 -108.5 -269.5 -108.5zM62 360c0 -90.667 29.5 -166 88.5 -226s132.167 -90 219.5 -90c86 0 158.5 30 217.5 90s88.5 135.333 88.5 226c0 89.333 -29.5 164 -88.5 224s-131.5 90 -217.5 90c-86.667 0 -159.667 -30 -219 -90s-89 -134.667 -89 -224zM290 330v-189
h-66v436h166c102.667 0 154 -41.333 154 -124c0 -70.667 -37.667 -110.667 -113 -120l124 -192h-74l-115 189h-76zM290 386h78.999c34.667 0 59.334 3.33301 74.001 10c21.333 10.667 32 31 32 61c0 42.667 -31.667 64 -95 64h-90v-135z" />
    <glyph glyph-name="macron" unicode="&#xaf;" horiz-adv-x="333" 
d="M323 684v-57h-313v57h313z" />
    <glyph glyph-name="macron" unicode="&#x2c9;" horiz-adv-x="333" 
d="M323 684v-57h-313v57h313z" />
    <glyph glyph-name="degree" unicode="&#xb0;" horiz-adv-x="400" 
d="M200 660c-26 0 -48.833 -10.5 -68.5 -31.5s-29.5 -44.833 -29.5 -71.5s9.83301 -50.5 29.5 -71.5s42.5 -31.5 68.5 -31.5s48.833 10.5 68.5 31.5s29.5 44.833 29.5 71.5s-9.83301 50.5 -29.5 71.5s-42.5 31.5 -68.5 31.5zM346 557c0 -41.333 -14 -76 -42 -104
s-62.667 -42 -104 -42s-76 14 -104 42s-42 62.667 -42 104s14 76 42 104s62.667 42 104 42s76 -14 104 -42s42 -62.667 42 -104z" />
    <glyph glyph-name="plusminus" unicode="&#xb1;" horiz-adv-x="584" 
d="M256 345v161h73v-161h216v-73h-216v-161h-73v161h-217v73h217zM39 0v73h506v-73h-506z" />
    <glyph glyph-name="twosuperior" unicode="&#xb2;" horiz-adv-x="333" 
d="M79 552h-60c0 59.333 20.333 101.666 61 126.999c26 16 58.333 24 97 24c42 0 76.833 -11.5 104.5 -34.5s41.5 -53.5 41.5 -91.5c0 -34.667 -11.667 -63.667 -35 -87c-16 -16 -44 -34.333 -84 -55l-45 -23c-36 -18.667 -62.667 -42 -80 -70h244v-61h-319
c3.33301 75.333 38 131 104 167l60 33c32.667 18 53.334 31 62.001 39c15.333 14.667 23 34.334 23 59.001c2 17.333 -3.33301 32 -16 44c-14.667 14.667 -37.334 22 -68.001 22c-55.333 0 -85.333 -31 -90 -93z" />
    <glyph glyph-name="threesuperior" unicode="&#xb3;" horiz-adv-x="333" 
d="M5 410l68.001 0.000976562c3.33301 -54.667 32 -82 86 -82c64 0 96 23.667 96 71c0 31.333 -12.333 52.333 -37 63c-14 6 -36 9 -66 9h-23v51h27c54.667 0 82 22.333 82 67c0 37.333 -26.667 56 -80 56c-50.667 0 -77.667 -26.667 -81 -80h-61c0 37.333 10.333 68 31 92
c25.333 30.667 65.333 46 120 46c43.333 0 77.666 -10.333 102.999 -31s38 -47.334 38 -80.001c0 -46.667 -19.667 -75.667 -59 -87v-2c50.667 -13.333 76 -45.666 76 -96.999c0 -38 -13 -69.333 -39 -94c-29.333 -28 -72 -42 -128 -42c-29.333 0 -57.333 6.33301 -84 19
c-40.667 19.333 -63.667 59.666 -69 120.999z" />
    <glyph glyph-name="acute" unicode="&#xb4;" horiz-adv-x="333" 
d="M319 734l-130 -141h-67l89 141h108z" />
    <glyph glyph-name="mu" unicode="&#xb5;" 
d="M489 0h-83.001v76l-2 2c-37.333 -62 -92.666 -93 -165.999 -93c-36 0 -62.667 11.333 -80 34h-2v-226h-88v730h88v-347c0 -76.667 33.667 -115 101 -115c50.667 0 88.667 19.667 114 59c20 30.667 30 69 30 115v288h88v-523z" />
    <glyph glyph-name="mu" unicode="&#x3bc;" 
d="M489 0h-83.001v76l-2 2c-37.333 -62 -92.666 -93 -165.999 -93c-36 0 -62.667 11.333 -80 34h-2v-226h-88v730h88v-347c0 -76.667 33.667 -115 101 -115c50.667 0 88.667 19.667 114 59c20 30.667 30 69 30 115v288h88v-523z" />
    <glyph glyph-name="paragraph" unicode="&#xb6;" horiz-adv-x="537" 
d="M232 -173v517c-63.333 0 -114.833 17.5 -154.5 52.5s-59.5 78.833 -59.5 131.5c0 126.667 77 190 231 190h248v-891h-73v831h-119v-831h-73z" />
    <glyph glyph-name="periodcentered" unicode="&#xb7;" horiz-adv-x="278" 
d="M140 315c16 0 30.3311 -6.16797 42.998 -18.501s19 -27.166 19 -44.499c0 -16.667 -6.16699 -31.167 -18.5 -43.5s-27.166 -18.5 -44.499 -18.5c-16.667 0 -31.167 6.16699 -43.5 18.5s-18.5 26.833 -18.5 43.5c0 18 6.33301 33 19 45s27.334 18 44.001 18z" />
    <glyph glyph-name="periodcentered" unicode="&#x2219;" horiz-adv-x="278" 
d="M140 315c16 0 30.3311 -6.16797 42.998 -18.501s19 -27.166 19 -44.499c0 -16.667 -6.16699 -31.167 -18.5 -43.5s-27.166 -18.5 -44.499 -18.5c-16.667 0 -31.167 6.16699 -43.5 18.5s-18.5 26.833 -18.5 43.5c0 18 6.33301 33 19 45s27.334 18 44.001 18z" />
    <glyph glyph-name="cedilla" unicode="&#xb8;" horiz-adv-x="333" 
d="M79 -86l64.001 85.999h47l-46 -62c14.667 2.66699 25 4 31 4c29.333 0 51.333 -8.66699 66 -26c12 -13.333 18 -29.666 18 -48.999c0 -26.667 -10.667 -48.667 -32 -66s-50 -26 -86 -26c-29.333 0 -61.333 7.33301 -96 22l17 40c25.333 -10 47 -15 65 -15
c37.333 0 56 14 56 42c0 12 -4.83301 21.5 -14.5 28.5s-20.834 10.5 -33.501 10.5c-7.33301 0 -20.333 -2.66699 -39 -8z" />
    <glyph glyph-name="onesuperior" unicode="&#xb9;" horiz-adv-x="333" 
d="M151 577h-108.001v46c40.667 2.66699 68.334 8 83.001 16c18 10.667 31.333 32 40 64h56v-422h-71v296z" />
    <glyph glyph-name="ordmasculine" unicode="&#xba;" horiz-adv-x="365" 
d="M341 571c0 -59.333 -17 -103.333 -51 -132c-27.333 -22.667 -63 -34 -107 -34s-79.667 11.333 -107 34c-34 28.667 -51 72.667 -51 132s17 103.333 51 132c27.333 22.667 63 34 107 34s79.667 -11.333 107 -34c34 -28.667 51 -72.667 51 -132zM274 571
c0 76 -30.333 114 -91 114s-91 -38 -91 -114s30.333 -114 91 -114s91 38 91 114zM35 352h296v-48h-296v48z" />
    <glyph glyph-name="guillemotright" unicode="&#xbb;" 
d="M254 231l-157 -123v88l105 81l-105 81v88l157 -123v-92zM459 231l-157 -123v88l105 81l-105 81v88l157 -123v-92z" />
    <glyph glyph-name="onequarter" unicode="&#xbc;" horiz-adv-x="834" 
d="M419 94v60l206 268h64v-270h67v-58h-67v-94h-64v94h-206zM625 152v187h-2l-142 -187h144zM653 703l-442 -722h-57l442 722h57zM181 580h-108.001v43c40.667 2.66699 68.334 8 83.001 16c18 10.667 31.333 32 40 64h53v-422h-68v299z" />
    <glyph glyph-name="onehalf" unicode="&#xbd;" horiz-adv-x="834" 
d="M617 703l-442 -722h-57l442 722h57zM151 577h-108.001v46c40.667 2.66699 68.334 8 83.001 16c18 10.667 31.333 32 40 64h56v-422h-71v296zM528.999 271h-60c0 59.333 20.333 101.666 61 126.999c26 16 58.333 24 97 24c42 0 76.833 -11.5 104.5 -34.5
s41.5 -53.5 41.5 -91.5c0 -34.667 -11.667 -63.667 -35 -87c-16 -16 -44 -34.333 -84 -55l-45 -23c-36 -18.667 -62.667 -42 -80 -70h244v-61h-319c3.33301 75.333 38 131 104 167l60 33c32.667 18 53.334 31 62.001 39c15.333 14.667 23 34.334 23 59.001
c2 17.333 -3.33301 32 -16 44c-14.667 14.667 -37.334 22 -68.001 22c-55.333 0 -85.333 -31 -90 -93z" />
    <glyph glyph-name="threequarters" unicode="&#xbe;" horiz-adv-x="834" 
d="M473 94v60l206 268h64v-270h67v-58h-67v-94h-64v94h-206zM677 339l-142 -187h144v187h-2zM712 703l-442 -722h-57l442 722h57zM45 410l68.001 0.000976562c3.33301 -54.667 32 -82 86 -82c64 0 96 23.667 96 71c0 31.333 -12.333 52.333 -37 63c-14 6 -36 9 -66 9h-23v51
h27c54.667 0 82 22.333 82 67c0 37.333 -26.667 56 -80 56c-50.667 0 -77.667 -26.667 -81 -80h-61c0 37.333 10.333 68 31 92c25.333 30.667 65.333 46 120 46c43.333 0 77.666 -10.333 102.999 -31s38 -47.334 38 -80.001c0 -46.667 -19.667 -75.667 -59 -87v-2
c50.667 -13.333 76 -45.666 76 -96.999c0 -38 -13 -69.333 -39 -94c-29.333 -28 -72 -42 -128 -42c-29.333 0 -57.333 6.33301 -84 19c-40.667 19.333 -63.667 59.666 -69 120.999z" />
    <glyph glyph-name="questiondown" unicode="&#xbf;" horiz-adv-x="611" 
d="M439 33l88.002 0.00195312c-2 -44.667 -6.33301 -77.334 -13 -98.001c-11.333 -34.667 -33.333 -64.667 -66 -90c-40 -30.667 -88.333 -46 -145 -46c-59.333 0 -108.666 16.667 -147.999 50c-42.667 36 -64 84.667 -64 146c0 31.333 7.33301 59 22 83
c12 20 36 47.333 72 82s58.667 60.334 68 77.001c13.333 25.333 19.666 60.666 18.999 105.999h88c0 -53.333 -7 -94.333 -21 -123c-10.667 -21.333 -35.334 -52 -74.001 -92c-35.333 -36.667 -57 -61.334 -65 -74.001c-10 -16 -15 -37.667 -15 -65c0 -28 8 -52.333 24 -73
c21.333 -27.333 53.666 -41 96.999 -41c88.667 0 133 52.667 133 158zM265.002 423.002v102h97v-102h-97z" />
    <glyph glyph-name="Agrave" unicode="&#xc0;" horiz-adv-x="667" 
d="M477 209h-288l-75 -209h-100l270 718h110l260 -718h-106zM219 295h223l-106 316h-2zM311 788l-130 141h108l89 -141h-67z" />
    <glyph glyph-name="Aacute" unicode="&#xc1;" horiz-adv-x="667" 
d="M477 209h-288l-75 -209h-100l270 718h110l260 -718h-106zM219 295h223l-106 316h-2zM486 929l-130 -141h-67l89 141h108z" />
    <glyph glyph-name="Acircumflex" unicode="&#xc2;" horiz-adv-x="667" 
d="M477 209h-288l-75 -209h-100l270 718h110l260 -718h-106zM219 295h223l-106 316h-2zM333 881l-66 -93h-79l99 141h93l99 -141h-80z" />
    <glyph glyph-name="Atilde" unicode="&#xc3;" horiz-adv-x="667" 
d="M477 209h-288l-75 -209h-100l270 718h110l260 -718h-106zM219 295h223l-106 316h-2zM454 917h49.998c-3.33301 -31.333 -14 -57.333 -32 -78s-40.667 -31 -68 -31c-14 0 -33.667 4.33301 -59 13l-26 9c-28.667 10 -49 15 -61 15c-22 0 -37.667 -14.667 -47 -44h-48
c10 71.333 44.667 107 104 107c20.667 0 43.334 -5 68.001 -15l22 -9c21.333 -8.66699 37 -13 47 -13c26.667 0 43.334 15.333 50.001 46z" />
    <glyph glyph-name="Adieresis" unicode="&#xc4;" horiz-adv-x="667" 
d="M477 209h-288l-75 -209h-100l270 718h110l260 -718h-106zM219 295h223l-106 316h-2zM298 901v-102h-91v102h91zM460 901v-102h-91v102h91z" />
    <glyph glyph-name="Aring" unicode="&#xc5;" horiz-adv-x="667" 
d="M477 209h-288l-75 -209h-100l270 718h110l260 -718h-106zM219 295h223l-106 316h-2zM334 931c26.667 0 48.667 -8.66699 66 -26s26 -39.333 26 -66s-8.66699 -48.667 -26 -66s-39.333 -26 -66 -26s-48.667 8.66699 -66 26s-26 39.333 -26 66s8.66699 48.667 26 66
s39.333 26 66 26zM282 839c0 -14.667 5 -27 15 -37s22.333 -15 37 -15s27 5 37 15s15 22.333 15 37s-5 27 -15 37s-22.333 15 -37 15s-27 -5 -37 -15s-15 -22.333 -15 -37z" />
    <glyph glyph-name="AE" unicode="&#xc6;" horiz-adv-x="1000" 
d="M192 209l-79 -209h-105l292 718h644v-86h-390v-220h356v-86h-356v-240h397v-86h-494v209h-265zM457 295v337h-97l-133 -337h230z" />
    <glyph glyph-name="Ccedilla" unicode="&#xc7;" horiz-adv-x="722" 
d="M674 502l-94 -0.000976562c-21.333 99.333 -88.333 149 -201 149c-68 0 -123.333 -24 -166 -72c-46 -51.333 -69 -122.333 -69 -213c0 -199.333 79.333 -299 238 -299c42.667 0 80.667 12 114 36c46 33.333 76.333 87 91 161h94c-17.333 -115.333 -68 -196.333 -152 -243
c-48 -26.667 -102 -40 -162 -40c-90.667 0 -165 29.333 -223 88c-66.667 67.333 -100 165.333 -100 294c0 112 30 202.333 90 271s141.667 103 245 103c87.333 0 158 -24 212 -72c48 -43.333 75.667 -97.666 83 -162.999zM274 -86.001l64.001 85.999h47l-46 -62
c14.667 2.66699 25 4 31 4c29.333 0 51.333 -8.66699 66 -26c12 -13.333 18 -29.666 18 -48.999c0 -26.667 -10.667 -48.667 -32 -66s-50 -26 -86 -26c-29.333 0 -61.333 7.33301 -96 22l17 40c25.333 -10 47 -15 65 -15c37.333 0 56 14 56 42
c0 12 -4.83301 21.5 -14.5 28.5s-20.834 10.5 -33.501 10.5c-7.33301 0 -20.333 -2.66699 -39 -8z" />
    <glyph glyph-name="Egrave" unicode="&#xc8;" horiz-adv-x="667" 
d="M616 86v-86h-530v718h523v-86h-426v-220h393v-86h-393v-240h433zM311 788l-130 141h108l89 -141h-67z" />
    <glyph glyph-name="Eacute" unicode="&#xc9;" horiz-adv-x="667" 
d="M616 86v-86h-530v718h523v-86h-426v-220h393v-86h-393v-240h433zM486 929l-130 -141h-67l89 141h108z" />
    <glyph glyph-name="Ecircumflex" unicode="&#xca;" horiz-adv-x="667" 
d="M616 86v-86h-530v718h523v-86h-426v-220h393v-86h-393v-240h433zM333 881l-66 -93h-79l99 141h93l99 -141h-80z" />
    <glyph glyph-name="Edieresis" unicode="&#xcb;" horiz-adv-x="667" 
d="M616 86v-86h-530v718h523v-86h-426v-220h393v-86h-393v-240h433zM298 901v-102h-91v102h91zM460 901v-102h-91v102h91z" />
    <glyph glyph-name="Igrave" unicode="&#xcc;" horiz-adv-x="278" 
d="M188 718v-718h-97v718h97zM117 788l-130 141h108l89 -141h-67z" />
    <glyph glyph-name="Iacute" unicode="&#xcd;" horiz-adv-x="278" 
d="M188 718v-718h-97v718h97zM292 929l-130 -141h-67l89 141h108z" />
    <glyph glyph-name="Icircumflex" unicode="&#xce;" horiz-adv-x="278" 
d="M188 718v-718h-97v718h97zM139 881l-66 -93h-79l99 141h93l99 -141h-80z" />
    <glyph glyph-name="Idieresis" unicode="&#xcf;" horiz-adv-x="278" 
d="M188 718v-718h-97v718h97zM104 901v-102h-91v102h91zM266 901v-102h-91v102h91z" />
    <glyph glyph-name="Eth" unicode="&#xd0;" horiz-adv-x="722" 
d="M370 412l-0.000976562 -86h-192v-243h188c64 0 114.667 24.333 152 73s56 117.667 56 207c0 88.667 -19.333 156.667 -58 204c-37.333 45.333 -89.666 68 -156.999 68h-181v-223h192zM-0.000976562 326l-0.000976562 86h81v306h291c92.667 0 166.167 -32 220.5 -96
s81.5 -148.333 81.5 -253c0 -76.667 -14.667 -145.667 -44 -207c-51.333 -108 -138.666 -162 -261.999 -162h-287v326h-81z" />
    <glyph glyph-name="Ntilde" unicode="&#xd1;" horiz-adv-x="722" 
d="M552 138v580h94v-718h-109l-365 580h-2v-580h-94v718h115l359 -580h2zM492 917h49.998c-3.33301 -31.333 -14 -57.333 -32 -78s-40.667 -31 -68 -31c-14 0 -33.667 4.33301 -59 13l-26 9c-28.667 10 -49 15 -61 15c-22 0 -37.667 -14.667 -47 -44h-48
c10 71.333 44.667 107 104 107c20.667 0 43.334 -5 68.001 -15l22 -9c21.333 -8.66699 37 -13 47 -13c26.667 0 43.334 15.333 50.001 46z" />
    <glyph glyph-name="Ograve" unicode="&#xd2;" horiz-adv-x="778" 
d="M639 359c0 86 -22 155.667 -66 209c-46 55.333 -107.333 83 -184 83s-137.5 -27.167 -182.5 -81.5s-67.5 -124.5 -67.5 -210.5s22.333 -155.667 67 -209c45.333 -55.333 106.333 -83 183 -83s138 27.667 184 83c44 53.333 66 123 66 209zM739 359
c0 -95.333 -24.667 -177.666 -74 -246.999c-63.333 -87.333 -155.333 -131 -276 -131s-212.334 43.667 -275.001 131c-50 69.333 -75 151.666 -75 246.999s25 177.666 75 246.999c62.667 87.333 154.334 131 275.001 131s212.667 -43.667 276 -131
c49.333 -69.333 74 -151.666 74 -246.999zM367 788l-130 141h108l89 -141h-67z" />
    <glyph glyph-name="Oacute" unicode="&#xd3;" horiz-adv-x="778" 
d="M639 359c0 86 -22 155.667 -66 209c-46 55.333 -107.333 83 -184 83s-137.5 -27.167 -182.5 -81.5s-67.5 -124.5 -67.5 -210.5s22.333 -155.667 67 -209c45.333 -55.333 106.333 -83 183 -83s138 27.667 184 83c44 53.333 66 123 66 209zM739 359
c0 -95.333 -24.667 -177.666 -74 -246.999c-63.333 -87.333 -155.333 -131 -276 -131s-212.334 43.667 -275.001 131c-50 69.333 -75 151.666 -75 246.999s25 177.666 75 246.999c62.667 87.333 154.334 131 275.001 131s212.667 -43.667 276 -131
c49.333 -69.333 74 -151.666 74 -246.999zM542 929l-130 -141h-67l89 141h108z" />
    <glyph glyph-name="Ocircumflex" unicode="&#xd4;" horiz-adv-x="778" 
d="M639 359c0 86 -22 155.667 -66 209c-46 55.333 -107.333 83 -184 83s-137.5 -27.167 -182.5 -81.5s-67.5 -124.5 -67.5 -210.5s22.333 -155.667 67 -209c45.333 -55.333 106.333 -83 183 -83s138 27.667 184 83c44 53.333 66 123 66 209zM739 359
c0 -95.333 -24.667 -177.666 -74 -246.999c-63.333 -87.333 -155.333 -131 -276 -131s-212.334 43.667 -275.001 131c-50 69.333 -75 151.666 -75 246.999s25 177.666 75 246.999c62.667 87.333 154.334 131 275.001 131s212.667 -43.667 276 -131
c49.333 -69.333 74 -151.666 74 -246.999zM389 881l-66 -93h-79l99 141h93l99 -141h-80z" />
    <glyph glyph-name="Otilde" unicode="&#xd5;" horiz-adv-x="778" 
d="M639 359c0 86 -22 155.667 -66 209c-46 55.333 -107.333 83 -184 83s-137.5 -27.167 -182.5 -81.5s-67.5 -124.5 -67.5 -210.5s22.333 -155.667 67 -209c45.333 -55.333 106.333 -83 183 -83s138 27.667 184 83c44 53.333 66 123 66 209zM739 359
c0 -95.333 -24.667 -177.666 -74 -246.999c-63.333 -87.333 -155.333 -131 -276 -131s-212.334 43.667 -275.001 131c-50 69.333 -75 151.666 -75 246.999s25 177.666 75 246.999c62.667 87.333 154.334 131 275.001 131s212.667 -43.667 276 -131
c49.333 -69.333 74 -151.666 74 -246.999zM510 917h49.998c-3.33301 -31.333 -14 -57.333 -32 -78s-40.667 -31 -68 -31c-14 0 -33.667 4.33301 -59 13l-26 9c-28.667 10 -49 15 -61 15c-22 0 -37.667 -14.667 -47 -44h-48c10 71.333 44.667 107 104 107
c20.667 0 43.334 -5 68.001 -15l22 -9c21.333 -8.66699 37 -13 47 -13c26.667 0 43.334 15.333 50.001 46z" />
    <glyph glyph-name="Odieresis" unicode="&#xd6;" horiz-adv-x="778" 
d="M639 359c0 86 -22 155.667 -66 209c-46 55.333 -107.333 83 -184 83s-137.5 -27.167 -182.5 -81.5s-67.5 -124.5 -67.5 -210.5s22.333 -155.667 67 -209c45.333 -55.333 106.333 -83 183 -83s138 27.667 184 83c44 53.333 66 123 66 209zM739 359
c0 -95.333 -24.667 -177.666 -74 -246.999c-63.333 -87.333 -155.333 -131 -276 -131s-212.334 43.667 -275.001 131c-50 69.333 -75 151.666 -75 246.999s25 177.666 75 246.999c62.667 87.333 154.334 131 275.001 131s212.667 -43.667 276 -131
c49.333 -69.333 74 -151.666 74 -246.999zM354 901v-102h-91v102h91zM516 901v-102h-91v102h91z" />
    <glyph glyph-name="multiply" unicode="&#xd7;" horiz-adv-x="584" 
d="M241 253l-202 202l52 51l201 -201l202 201l51 -51l-201 -202l201 -202l-51 -51l-202 201l-202 -201l-51 51z" />
    <glyph glyph-name="Oslash" unicode="&#xd8;" horiz-adv-x="778" 
d="M590 543l-373 -405c44 -47.333 101.333 -71 172 -71c76.667 0 138 27.667 184 83c44 53.333 66 123 66 209c0 74 -16.333 135.333 -49 184zM190 171l374 407.001c-44.667 48.667 -103 73 -175 73c-76.667 0 -137.5 -27.167 -182.5 -81.5s-67.5 -124.5 -67.5 -210.5
c0 -72.667 17 -135.334 51 -188.001zM740 707.001l-83.001 -91.001c54.667 -70 82 -155.667 82 -257c0 -95.333 -24.667 -177.666 -74 -246.999c-63.333 -87.333 -155.333 -131 -276 -131c-97.333 0 -176 29 -236 87l-80 -87l-32 28l83 90
c-56.667 70.667 -85 157.334 -85 260.001c0 95.333 25 177.666 75 246.999c62.667 87.333 154.334 131 275.001 131c100 0 179.667 -29.667 239 -89l81 89z" />
    <glyph glyph-name="Ugrave" unicode="&#xd9;" horiz-adv-x="722" 
d="M547 718h97v-466c0 -78 -23.667 -141.667 -71 -191c-51.333 -53.333 -124 -80 -218 -80c-90.667 0 -160.667 26.333 -210 79c-44 46.667 -66 106.334 -66 179.001v479h97v-452c0 -71.333 19.333 -124 58 -158c31.333 -27.333 72.666 -41 123.999 -41
c52.667 0 95.334 13.333 128.001 40c40.667 33.333 61 85.666 61 156.999v454zM339 788l-130 141h108l89 -141h-67z" />
    <glyph glyph-name="Uacute" unicode="&#xda;" horiz-adv-x="722" 
d="M547 718h97v-466c0 -78 -23.667 -141.667 -71 -191c-51.333 -53.333 -124 -80 -218 -80c-90.667 0 -160.667 26.333 -210 79c-44 46.667 -66 106.334 -66 179.001v479h97v-452c0 -71.333 19.333 -124 58 -158c31.333 -27.333 72.666 -41 123.999 -41
c52.667 0 95.334 13.333 128.001 40c40.667 33.333 61 85.666 61 156.999v454zM514 929l-130 -141h-67l89 141h108z" />
    <glyph glyph-name="Ucircumflex" unicode="&#xdb;" horiz-adv-x="722" 
d="M547 718h97v-466c0 -78 -23.667 -141.667 -71 -191c-51.333 -53.333 -124 -80 -218 -80c-90.667 0 -160.667 26.333 -210 79c-44 46.667 -66 106.334 -66 179.001v479h97v-452c0 -71.333 19.333 -124 58 -158c31.333 -27.333 72.666 -41 123.999 -41
c52.667 0 95.334 13.333 128.001 40c40.667 33.333 61 85.666 61 156.999v454zM361 881l-66 -93h-79l99 141h93l99 -141h-80z" />
    <glyph glyph-name="Udieresis" unicode="&#xdc;" horiz-adv-x="722" 
d="M547 718h97v-466c0 -78 -23.667 -141.667 -71 -191c-51.333 -53.333 -124 -80 -218 -80c-90.667 0 -160.667 26.333 -210 79c-44 46.667 -66 106.334 -66 179.001v479h97v-452c0 -71.333 19.333 -124 58 -158c31.333 -27.333 72.666 -41 123.999 -41
c52.667 0 95.334 13.333 128.001 40c40.667 33.333 61 85.666 61 156.999v454zM326 901v-102h-91v102h91zM488 901v-102h-91v102h91z" />
    <glyph glyph-name="Yacute" unicode="&#xdd;" horiz-adv-x="667" 
d="M382 289v-289h-97v289l-271 429h113l206 -345l206 345h114zM486 929l-130 -141h-67l89 141h108z" />
    <glyph glyph-name="Thorn" unicode="&#xde;" horiz-adv-x="667" 
d="M183 516v-249h193c97.333 0 146 43 146 129c0 80 -47.333 120 -142 120h-197zM86 0l0.000976562 718h97v-119h226c65.333 0 117.166 -18.833 155.499 -56.5s57.5 -86.167 57.5 -145.5c0 -57.333 -16 -105.333 -48 -144c-38 -46 -93 -69 -165 -69h-226v-184h-97z" />
    <glyph glyph-name="germandbls" unicode="&#xdf;" horiz-adv-x="611" 
d="M67 0v532c0 59.333 20.167 106.833 60.5 142.5s97.166 53.5 170.499 53.5s131.5 -16.333 174.5 -49s64.5 -76.334 64.5 -131.001c0 -63.333 -27.333 -112.666 -82 -147.999c34.667 -9.33301 63.334 -31.333 86.001 -66c20 -31.333 30 -63.333 30 -96
c0 -84.667 -24 -149 -72 -193c-44 -40 -104 -60 -180 -60c-13.333 0 -31 2.33301 -53 7v75c15.333 -2 30 -3 44 -3c113.333 0 170 50 170 150c0 93.333 -56.667 140 -170 140c-15.333 0 -28.333 -1.33301 -39 -4v79c12 -1.33301 19.667 -2 23 -2
c103.333 0 155 37.667 155 113c0 33.333 -12.667 60 -38 80c-27.333 21.333 -65.333 32 -114 32c-53.333 0 -91 -13 -113 -39c-19.333 -22 -29 -56.333 -29 -103v-510h-88z" />
    <glyph glyph-name="agrave" unicode="&#xe0;" 
d="M143 364h-81c4 116 76 174 216 174c42 0 79.667 -7.66699 113 -23c54 -24.667 81 -65.667 81 -123v-301c0 -20.667 9.66699 -31 29 -31c6 0 15.667 1.33301 29 4v-64c-24.667 -6.66699 -40.667 -10 -48 -10c-58 0 -89 26.667 -93 80c-52 -56.667 -115 -85 -189 -85
c-48 0 -87.333 14 -118 42s-46 64.333 -46 109c0 96 53 150.667 159 164l145 18c30.667 4 46 24.667 46 62c0 56.667 -41 85 -123 85c-70 0 -110 -33.667 -120 -101zM384 181v86c-14 -11.333 -62.333 -22.333 -145 -33c-74.667 -10 -112 -38.333 -112 -85
c0 -60.667 31.667 -91 95 -91c42 0 79.5 12 112.5 36s49.5 53 49.5 87zM256 593l-130 141h108l89 -141h-67z" />
    <glyph glyph-name="aacute" unicode="&#xe1;" 
d="M143 364h-81c4 116 76 174 216 174c42 0 79.667 -7.66699 113 -23c54 -24.667 81 -65.667 81 -123v-301c0 -20.667 9.66699 -31 29 -31c6 0 15.667 1.33301 29 4v-64c-24.667 -6.66699 -40.667 -10 -48 -10c-58 0 -89 26.667 -93 80c-52 -56.667 -115 -85 -189 -85
c-48 0 -87.333 14 -118 42s-46 64.333 -46 109c0 96 53 150.667 159 164l145 18c30.667 4 46 24.667 46 62c0 56.667 -41 85 -123 85c-70 0 -110 -33.667 -120 -101zM384 181v86c-14 -11.333 -62.333 -22.333 -145 -33c-74.667 -10 -112 -38.333 -112 -85
c0 -60.667 31.667 -91 95 -91c42 0 79.5 12 112.5 36s49.5 53 49.5 87zM431 734l-130 -141h-67l89 141h108z" />
    <glyph glyph-name="acircumflex" unicode="&#xe2;" 
d="M143 364h-81c4 116 76 174 216 174c42 0 79.667 -7.66699 113 -23c54 -24.667 81 -65.667 81 -123v-301c0 -20.667 9.66699 -31 29 -31c6 0 15.667 1.33301 29 4v-64c-24.667 -6.66699 -40.667 -10 -48 -10c-58 0 -89 26.667 -93 80c-52 -56.667 -115 -85 -189 -85
c-48 0 -87.333 14 -118 42s-46 64.333 -46 109c0 96 53 150.667 159 164l145 18c30.667 4 46 24.667 46 62c0 56.667 -41 85 -123 85c-70 0 -110 -33.667 -120 -101zM384 181v86c-14 -11.333 -62.333 -22.333 -145 -33c-74.667 -10 -112 -38.333 -112 -85
c0 -60.667 31.667 -91 95 -91c42 0 79.5 12 112.5 36s49.5 53 49.5 87zM278 686l-66 -93h-79l99 141h93l99 -141h-80z" />
    <glyph glyph-name="atilde" unicode="&#xe3;" 
d="M143 364h-81c4 116 76 174 216 174c42 0 79.667 -7.66699 113 -23c54 -24.667 81 -65.667 81 -123v-301c0 -20.667 9.66699 -31 29 -31c6 0 15.667 1.33301 29 4v-64c-24.667 -6.66699 -40.667 -10 -48 -10c-58 0 -89 26.667 -93 80c-52 -56.667 -115 -85 -189 -85
c-48 0 -87.333 14 -118 42s-46 64.333 -46 109c0 96 53 150.667 159 164l145 18c30.667 4 46 24.667 46 62c0 56.667 -41 85 -123 85c-70 0 -110 -33.667 -120 -101zM384 181v86c-14 -11.333 -62.333 -22.333 -145 -33c-74.667 -10 -112 -38.333 -112 -85
c0 -60.667 31.667 -91 95 -91c42 0 79.5 12 112.5 36s49.5 53 49.5 87zM389 722h49.998c-3.33301 -31.333 -14 -57.333 -32 -78s-40.667 -31 -68 -31c-14 0 -33.667 4.33301 -59 13l-26 9c-28.667 10 -49 15 -61 15c-22 0 -37.667 -14.667 -47 -44h-48
c10 71.333 44.667 107 104 107c20.667 0 43.334 -5 68.001 -15l22 -9c21.333 -8.66699 37 -13 47 -13c26.667 0 43.334 15.333 50.001 46z" />
    <glyph glyph-name="adieresis" unicode="&#xe4;" 
d="M143 364h-81c4 116 76 174 216 174c42 0 79.667 -7.66699 113 -23c54 -24.667 81 -65.667 81 -123v-301c0 -20.667 9.66699 -31 29 -31c6 0 15.667 1.33301 29 4v-64c-24.667 -6.66699 -40.667 -10 -48 -10c-58 0 -89 26.667 -93 80c-52 -56.667 -115 -85 -189 -85
c-48 0 -87.333 14 -118 42s-46 64.333 -46 109c0 96 53 150.667 159 164l145 18c30.667 4 46 24.667 46 62c0 56.667 -41 85 -123 85c-70 0 -110 -33.667 -120 -101zM384 181v86c-14 -11.333 -62.333 -22.333 -145 -33c-74.667 -10 -112 -38.333 -112 -85
c0 -60.667 31.667 -91 95 -91c42 0 79.5 12 112.5 36s49.5 53 49.5 87zM243 706v-102h-91v102h91zM405 706v-102h-91v102h91z" />
    <glyph glyph-name="aring" unicode="&#xe5;" 
d="M143 364h-81c4 116 76 174 216 174c42 0 79.667 -7.66699 113 -23c54 -24.667 81 -65.667 81 -123v-301c0 -20.667 9.66699 -31 29 -31c6 0 15.667 1.33301 29 4v-64c-24.667 -6.66699 -40.667 -10 -48 -10c-58 0 -89 26.667 -93 80c-52 -56.667 -115 -85 -189 -85
c-48 0 -87.333 14 -118 42s-46 64.333 -46 109c0 96 53 150.667 159 164l145 18c30.667 4 46 24.667 46 62c0 56.667 -41 85 -123 85c-70 0 -110 -33.667 -120 -101zM384 181v86c-14 -11.333 -62.333 -22.333 -145 -33c-74.667 -10 -112 -38.333 -112 -85
c0 -60.667 31.667 -91 95 -91c42 0 79.5 12 112.5 36s49.5 53 49.5 87zM279 756c26.667 0 48.667 -8.66699 66 -26s26 -39.333 26 -66s-8.66699 -48.667 -26 -66s-39.333 -26 -66 -26s-48.667 8.66699 -66 26s-26 39.333 -26 66s8.66699 48.667 26 66s39.333 26 66 26z
M227 664c0 -14.667 5 -27 15 -37s22.333 -15 37 -15s27 5 37 15s15 22.333 15 37s-5 27 -15 37s-22.333 15 -37 15s-27 -5 -37 -15s-15 -22.333 -15 -37z" />
    <glyph glyph-name="ae" unicode="&#xe6;" horiz-adv-x="889" 
d="M465 303l291.001 -0.000976562c-6.66699 104 -55.334 156 -146.001 156c-40 0 -74.167 -15.667 -102.5 -47s-42.5 -67.666 -42.5 -108.999zM752.001 163.999l88.001 -0.00195312c-2 -18.667 -9.66699 -40 -23 -64c-18 -33.333 -41.333 -59.666 -70 -78.999
c-36 -24 -83.333 -36 -142 -36c-87.333 0 -151.333 36.333 -192 109c-48 -72.667 -119 -109 -213 -109c-48 0 -87.333 14 -118 42s-46 64.333 -46 109c0 96 53 150.667 159 164l145 18c30.667 4 46 24.667 46 62c0 56.667 -41 85 -123 85c-70 0 -110 -33.667 -120 -101h-81
c4 116 76 174 216 174c44.667 0 81 -7.33301 109 -22c16.667 -9.33301 37 -26.666 61 -51.999c24 23.333 43.667 39.333 59 48c31.333 17.333 69.666 26 114.999 26c74 0 130 -27.167 168 -81.5s57 -128.833 57 -223.5h-382c0 -114.667 50.667 -172 152 -172
c38 0 70.667 12.333 98 37c22.667 21.333 35 43.333 37 66zM384.002 180.997v86c-14 -11.333 -62.333 -22.333 -145 -33c-74.667 -10 -112 -38.333 -112 -85c0 -60.667 31.667 -91 95 -91c42 0 79.5 12 112.5 36s49.5 53 49.5 87z" />
    <glyph glyph-name="ccedilla" unicode="&#xe7;" horiz-adv-x="500" 
d="M477 347h-85c-12 74.667 -53.333 112 -124 112c-50 0 -87.667 -21.333 -113 -64c-20.667 -34.667 -31 -79 -31 -133c0 -134 47.667 -201 143 -201c30 0 56.5 10.833 79.5 32.5s38.167 52.167 45.5 91.5h85c-5.33301 -52 -22.666 -95.667 -51.999 -131
c-38.667 -46 -92.334 -69 -161.001 -69c-72 0 -129 24.333 -171 73s-63 111.667 -63 189c0 86 20.333 154.667 61 206c44 56.667 107.333 85 190 85c62.667 0 111.667 -20.333 147 -61c28.667 -34 45 -77.333 49 -130zM163 -86l64.001 85.999h47l-46 -62
c14.667 2.66699 25 4 31 4c29.333 0 51.333 -8.66699 66 -26c12 -13.333 18 -29.666 18 -48.999c0 -26.667 -10.667 -48.667 -32 -66s-50 -26 -86 -26c-29.333 0 -61.333 7.33301 -96 22l17 40c25.333 -10 47 -15 65 -15c37.333 0 56 14 56 42
c0 12 -4.83301 21.5 -14.5 28.5s-20.834 10.5 -33.501 10.5c-7.33301 0 -20.333 -2.66699 -39 -8z" />
    <glyph glyph-name="egrave" unicode="&#xe8;" 
d="M421 164l88 -0.000976562c-2 -18.667 -9.66699 -40 -23 -64c-18 -33.333 -41.333 -59.666 -70 -78.999c-36 -24 -83.333 -36 -142 -36c-72 0 -129 24.333 -171 73s-63 111.667 -63 189c0 86 20.333 154.667 61 206c44 56.667 107.333 85 190 85
c74 0 130 -27.167 168 -81.5s57 -128.833 57 -223.5h-382c0 -114.667 50.667 -172 152 -172c38 0 70.667 12.333 98 37c22.667 21.333 35 43.333 37 66zM134 302.999l291.001 -0.000976562c-6.66699 104 -55.334 156 -146.001 156c-40 0 -74.167 -15.667 -102.5 -47
s-42.5 -67.666 -42.5 -108.999zM256.001 592.998l-130 141h108l89 -141h-67z" />
    <glyph glyph-name="eacute" unicode="&#xe9;" 
d="M421 164l88 -0.000976562c-2 -18.667 -9.66699 -40 -23 -64c-18 -33.333 -41.333 -59.666 -70 -78.999c-36 -24 -83.333 -36 -142 -36c-72 0 -129 24.333 -171 73s-63 111.667 -63 189c0 86 20.333 154.667 61 206c44 56.667 107.333 85 190 85
c74 0 130 -27.167 168 -81.5s57 -128.833 57 -223.5h-382c0 -114.667 50.667 -172 152 -172c38 0 70.667 12.333 98 37c22.667 21.333 35 43.333 37 66zM134 302.999l291.001 -0.000976562c-6.66699 104 -55.334 156 -146.001 156c-40 0 -74.167 -15.667 -102.5 -47
s-42.5 -67.666 -42.5 -108.999zM431.001 733.998l-130 -141h-67l89 141h108z" />
    <glyph glyph-name="ecircumflex" unicode="&#xea;" 
d="M421 164l88 -0.000976562c-2 -18.667 -9.66699 -40 -23 -64c-18 -33.333 -41.333 -59.666 -70 -78.999c-36 -24 -83.333 -36 -142 -36c-72 0 -129 24.333 -171 73s-63 111.667 -63 189c0 86 20.333 154.667 61 206c44 56.667 107.333 85 190 85
c74 0 130 -27.167 168 -81.5s57 -128.833 57 -223.5h-382c0 -114.667 50.667 -172 152 -172c38 0 70.667 12.333 98 37c22.667 21.333 35 43.333 37 66zM134 302.999l291.001 -0.000976562c-6.66699 104 -55.334 156 -146.001 156c-40 0 -74.167 -15.667 -102.5 -47
s-42.5 -67.666 -42.5 -108.999zM278.001 685.998l-66 -93h-79l99 141h93l99 -141h-80z" />
    <glyph glyph-name="edieresis" unicode="&#xeb;" 
d="M421 164l88 -0.000976562c-2 -18.667 -9.66699 -40 -23 -64c-18 -33.333 -41.333 -59.666 -70 -78.999c-36 -24 -83.333 -36 -142 -36c-72 0 -129 24.333 -171 73s-63 111.667 -63 189c0 86 20.333 154.667 61 206c44 56.667 107.333 85 190 85
c74 0 130 -27.167 168 -81.5s57 -128.833 57 -223.5h-382c0 -114.667 50.667 -172 152 -172c38 0 70.667 12.333 98 37c22.667 21.333 35 43.333 37 66zM134 302.999l291.001 -0.000976562c-6.66699 104 -55.334 156 -146.001 156c-40 0 -74.167 -15.667 -102.5 -47
s-42.5 -67.666 -42.5 -108.999zM243.001 705.998v-102h-91v102h91zM405.001 705.998v-102h-91v102h91z" />
    <glyph glyph-name="igrave" unicode="&#xec;" horiz-adv-x="278" 
d="M183 523v-523h-88v523h88zM117 593l-130 141h108l89 -141h-67z" />
    <glyph glyph-name="iacute" unicode="&#xed;" horiz-adv-x="278" 
d="M183 523v-523h-88v523h88zM292 734l-130 -141h-67l89 141h108z" />
    <glyph glyph-name="icircumflex" unicode="&#xee;" horiz-adv-x="278" 
d="M183 523v-523h-88v523h88zM139 686l-66 -93h-79l99 141h93l99 -141h-80z" />
    <glyph glyph-name="idieresis" unicode="&#xef;" horiz-adv-x="278" 
d="M183 523v-523h-88v523h88zM104 706v-102h-91v102h91zM266 706v-102h-91v102h91z" />
    <glyph glyph-name="eth" unicode="&#xf0;" 
d="M126 254c0 -42.667 9.33301 -81.667 28 -117c26.667 -50.667 68 -76 124 -76s97.333 25.333 124 76c18.667 35.333 28 74.333 28 117s-9.33301 81.667 -28 117c-26.667 50.667 -68 76 -124 76s-97.333 -25.333 -124 -76c-18.667 -35.333 -28 -74.333 -28 -117zM469 697
l-107.001 -50.9961c106.667 -98 160 -214 160 -348c0 -108.667 -26.333 -190.667 -79 -246c-42.667 -44.667 -95 -67 -157 -67c-82 0 -145.667 28.333 -191 85c-40 49.333 -60 110.666 -60 183.999c0 71.333 19.667 132.666 59 183.999c42.667 56.667 99.334 85 170.001 85
c54.667 0 99 -18.333 133 -55l2 2c-20.667 51.333 -57.667 98.666 -111 141.999l-124 -62l-42 42l118 57c-27.333 21.333 -57 38.666 -89 51.999l74 36c34.667 -13.333 65 -30.333 91 -51l106 51z" />
    <glyph glyph-name="ntilde" unicode="&#xf1;" 
d="M491 356v-355.999h-88v322c0 47.333 -8.33301 82 -25 104s-45.667 33 -87 33c-34 0 -63.333 -11.333 -88 -34c-33.333 -30.667 -50 -77.334 -50 -140.001v-285h-88v523h83v-74h2c40 59.333 92.667 89 158 89c50 0 90.667 -11.667 122 -35
c40.667 -30.667 61 -79.667 61 -147zM389 722.001h49.998c-3.33301 -31.333 -14 -57.333 -32 -78s-40.667 -31 -68 -31c-14 0 -33.667 4.33301 -59 13l-26 9c-28.667 10 -49 15 -61 15c-22 0 -37.667 -14.667 -47 -44h-48c10 71.333 44.667 107 104 107
c20.667 0 43.334 -5 68.001 -15l22 -9c21.333 -8.66699 37 -13 47 -13c26.667 0 43.334 15.333 50.001 46z" />
    <glyph glyph-name="ograve" unicode="&#xf2;" 
d="M35 262c0 74.667 19.667 137.667 59 189c44.667 58 106 87 184 87s139.333 -29 184 -87c39.333 -51.333 59 -114.333 59 -189s-19.667 -137.667 -59 -189c-44.667 -58 -106 -87 -184 -87s-139.333 29 -184 87c-39.333 51.333 -59 114.333 -59 189zM126 262
c0 -48.667 9.66699 -90.667 29 -126c26.667 -49.333 67.667 -74 123 -74s96.333 24.667 123 74c19.333 35.333 29 77.333 29 126s-9.66699 90.667 -29 126c-26.667 49.333 -67.667 74 -123 74s-96.333 -24.667 -123 -74c-19.333 -35.333 -29 -77.333 -29 -126zM256 593
l-130 141h108l89 -141h-67z" />
    <glyph glyph-name="oacute" unicode="&#xf3;" 
d="M35 262c0 74.667 19.667 137.667 59 189c44.667 58 106 87 184 87s139.333 -29 184 -87c39.333 -51.333 59 -114.333 59 -189s-19.667 -137.667 -59 -189c-44.667 -58 -106 -87 -184 -87s-139.333 29 -184 87c-39.333 51.333 -59 114.333 -59 189zM126 262
c0 -48.667 9.66699 -90.667 29 -126c26.667 -49.333 67.667 -74 123 -74s96.333 24.667 123 74c19.333 35.333 29 77.333 29 126s-9.66699 90.667 -29 126c-26.667 49.333 -67.667 74 -123 74s-96.333 -24.667 -123 -74c-19.333 -35.333 -29 -77.333 -29 -126zM431 734
l-130 -141h-67l89 141h108z" />
    <glyph glyph-name="ocircumflex" unicode="&#xf4;" 
d="M35 262c0 74.667 19.667 137.667 59 189c44.667 58 106 87 184 87s139.333 -29 184 -87c39.333 -51.333 59 -114.333 59 -189s-19.667 -137.667 -59 -189c-44.667 -58 -106 -87 -184 -87s-139.333 29 -184 87c-39.333 51.333 -59 114.333 -59 189zM126 262
c0 -48.667 9.66699 -90.667 29 -126c26.667 -49.333 67.667 -74 123 -74s96.333 24.667 123 74c19.333 35.333 29 77.333 29 126s-9.66699 90.667 -29 126c-26.667 49.333 -67.667 74 -123 74s-96.333 -24.667 -123 -74c-19.333 -35.333 -29 -77.333 -29 -126zM278 686
l-66 -93h-79l99 141h93l99 -141h-80z" />
    <glyph glyph-name="otilde" unicode="&#xf5;" 
d="M35 262c0 74.667 19.667 137.667 59 189c44.667 58 106 87 184 87s139.333 -29 184 -87c39.333 -51.333 59 -114.333 59 -189s-19.667 -137.667 -59 -189c-44.667 -58 -106 -87 -184 -87s-139.333 29 -184 87c-39.333 51.333 -59 114.333 -59 189zM126 262
c0 -48.667 9.66699 -90.667 29 -126c26.667 -49.333 67.667 -74 123 -74s96.333 24.667 123 74c19.333 35.333 29 77.333 29 126s-9.66699 90.667 -29 126c-26.667 49.333 -67.667 74 -123 74s-96.333 -24.667 -123 -74c-19.333 -35.333 -29 -77.333 -29 -126zM399 722
h49.998c-3.33301 -31.333 -14 -57.333 -32 -78s-40.667 -31 -68 -31c-14 0 -33.667 4.33301 -59 13l-26 9c-28.667 10 -49 15 -61 15c-22 0 -37.667 -14.667 -47 -44h-48c10 71.333 44.667 107 104 107c20.667 0 43.334 -5 68.001 -15l22 -9c21.333 -8.66699 37 -13 47 -13
c26.667 0 43.334 15.333 50.001 46z" />
    <glyph glyph-name="odieresis" unicode="&#xf6;" 
d="M35 262c0 74.667 19.667 137.667 59 189c44.667 58 106 87 184 87s139.333 -29 184 -87c39.333 -51.333 59 -114.333 59 -189s-19.667 -137.667 -59 -189c-44.667 -58 -106 -87 -184 -87s-139.333 29 -184 87c-39.333 51.333 -59 114.333 -59 189zM126 262
c0 -48.667 9.66699 -90.667 29 -126c26.667 -49.333 67.667 -74 123 -74s96.333 24.667 123 74c19.333 35.333 29 77.333 29 126s-9.66699 90.667 -29 126c-26.667 49.333 -67.667 74 -123 74s-96.333 -24.667 -123 -74c-19.333 -35.333 -29 -77.333 -29 -126zM243 706v-102
h-91v102h91zM405 706v-102h-91v102h91z" />
    <glyph glyph-name="divide" unicode="&#xf7;" horiz-adv-x="584" 
d="M545 216h-506v73h506v-73zM224 456c0 18.667 6.83301 34.667 20.5 48s29.5 20 47.5 20c18.667 0 34.667 -6.66699 48 -20s20 -29.333 20 -48c0 -17.333 -6.83301 -33 -20.5 -47s-29.5 -21 -47.5 -21s-33.833 6.66699 -47.5 20s-20.5 29.333 -20.5 48zM224 49
c0 18.667 6.83301 34.667 20.5 48s29.5 20 47.5 20c18.667 0 34.667 -6.66699 48 -20s20 -29.333 20 -48c0 -17.333 -6.83301 -33 -20.5 -47s-29.5 -21 -47.5 -21s-33.833 6.66699 -47.5 20s-20.5 29.333 -20.5 48z" />
    <glyph glyph-name="oslash" unicode="&#xf8;" horiz-adv-x="611" 
d="M537 519l-69 -78c35.333 -49.333 53 -109 53 -179c0 -74.667 -19.667 -137.667 -59 -189c-44.667 -58 -106 -87 -184 -87c-64.667 0 -117.667 20 -159 60l-60 -68l-31 26l64 72c-38 51.333 -57 113.333 -57 186c0 74.667 19.667 137.667 59 189c44.667 58 106 87 184 87
c67.333 0 122 -21.667 164 -65l64 72zM151 143l236 267c-26.667 34.667 -63 52 -109 52c-55.333 0 -96.333 -24.667 -123 -74c-19.333 -35.333 -29 -77.333 -29 -126c0 -43.333 8.33301 -83 25 -119zM408 373l-234.001 -265c24.667 -30.667 59.334 -46 104.001 -46
c55.333 0 96.333 24.667 123 74c19.333 35.333 29 77.333 29 126c0 42 -7.33301 79 -22 111z" />
    <glyph glyph-name="ugrave" unicode="&#xf9;" 
d="M489 0l-83.001 -0.000976562v76l-2 2c-37.333 -62 -92.666 -93 -165.999 -93c-46 0 -84 11.333 -114 34c-37.333 28.667 -56 71.334 -56 128.001v376h88v-347c0 -76.667 33.667 -115 101 -115c50.667 0 88.667 19.667 114 59c20 30.667 30 69 30 115v288h88v-523z
M255.999 592.999l-130 141h108l89 -141h-67z" />
    <glyph glyph-name="uacute" unicode="&#xfa;" 
d="M489 0l-83.001 -0.000976562v76l-2 2c-37.333 -62 -92.666 -93 -165.999 -93c-46 0 -84 11.333 -114 34c-37.333 28.667 -56 71.334 -56 128.001v376h88v-347c0 -76.667 33.667 -115 101 -115c50.667 0 88.667 19.667 114 59c20 30.667 30 69 30 115v288h88v-523z
M430.999 733.999l-130 -141h-67l89 141h108z" />
    <glyph glyph-name="ucircumflex" unicode="&#xfb;" 
d="M489 0l-83.001 -0.000976562v76l-2 2c-37.333 -62 -92.666 -93 -165.999 -93c-46 0 -84 11.333 -114 34c-37.333 28.667 -56 71.334 -56 128.001v376h88v-347c0 -76.667 33.667 -115 101 -115c50.667 0 88.667 19.667 114 59c20 30.667 30 69 30 115v288h88v-523z
M277.999 685.999l-66 -93h-79l99 141h93l99 -141h-80z" />
    <glyph glyph-name="udieresis" unicode="&#xfc;" 
d="M489 0l-83.001 -0.000976562v76l-2 2c-37.333 -62 -92.666 -93 -165.999 -93c-46 0 -84 11.333 -114 34c-37.333 28.667 -56 71.334 -56 128.001v376h88v-347c0 -76.667 33.667 -115 101 -115c50.667 0 88.667 19.667 114 59c20 30.667 30 69 30 115v288h88v-523z
M242.999 705.999v-102h-91v102h91zM404.999 705.999v-102h-91v102h91z" />
    <glyph glyph-name="yacute" unicode="&#xfd;" horiz-adv-x="500" 
d="M252 97l139.999 425.999h97l-188 -513c-30 -77.333 -51.667 -128 -65 -152c-16.667 -31.333 -35 -51.666 -55 -60.999c-16 -7.33301 -44.333 -11 -85 -11c-6 0 -18.333 2.66699 -37 8v80c16.667 -6 34.334 -9 53.001 -9c22 0 38 6.66699 48 20c8 11.333 23 45 45 101
l-194 537h100l139 -426h2zM402.999 733.999l-130 -141h-67l89 141h108z" />
    <glyph glyph-name="thorn" unicode="&#xfe;" 
d="M142 237c0 -62 17 -108.667 51 -140c25.333 -24 56 -36 92 -36c46 0 81.667 19.333 107 58c22.667 35.333 34 83.333 34 144c0 130.667 -47.667 196 -143 196c-94 0 -141 -74 -141 -222zM58 -207l0.000976562 925h88v-267h2c37.333 58 87.666 87 150.999 87
c67.333 0 121 -25 161 -75c38 -48 57 -110 57 -186s-16 -140.333 -48 -193c-40.667 -66 -101.334 -99 -182.001 -99c-63.333 0 -109.666 23.333 -138.999 70h-2v-262h-88z" />
    <glyph glyph-name="ydieresis" unicode="&#xff;" horiz-adv-x="500" 
d="M252 97l139.999 425.999h97l-188 -513c-30 -77.333 -51.667 -128 -65 -152c-16.667 -31.333 -35 -51.666 -55 -60.999c-16 -7.33301 -44.333 -11 -85 -11c-6 0 -18.333 2.66699 -37 8v80c16.667 -6 34.334 -9 53.001 -9c22 0 38 6.66699 48 20c8 11.333 23 45 45 101
l-194 537h100l139 -426h2zM214.999 705.999v-102h-91v102h91zM376.999 705.999v-102h-91v102h91z" />
    <glyph glyph-name="dotlessi" unicode="&#x131;" horiz-adv-x="278" 
d="M183 523v-523h-88v523h88z" />
    <glyph glyph-name="Lslash" unicode="&#x141;" 
d="M291 520v-58l-118 -67v-309h364v-86h-461v344l-96 -55v58l96 55v316h97v-265z" />
    <glyph glyph-name="lslash" unicode="&#x142;" horiz-adv-x="222" 
d="M242 435l-87 -50v-385h-88v339l-87 -50v58l87 50v321h88v-275l87 50v-58z" />
    <glyph glyph-name="OE" unicode="&#x152;" horiz-adv-x="1000" 
d="M517 230v262c0 49.333 -16 88.666 -48 117.999s-73.667 44 -125 44c-138.667 0 -208 -105 -208 -315c0 -58.667 8.33301 -108.667 25 -150c17.333 -43.333 40.833 -75 70.5 -95s71.5 -30 125.5 -30c39.333 0 74 12.667 104 38c37.333 30.667 56 73.334 56 128.001z
M523 645l0.000976562 73h440v-86h-349v-220h333v-86h-333v-240h351v-86h-443v75h-2c-23.333 -30 -44.333 -51 -63 -63c-32.667 -20.667 -75.334 -31 -128.001 -31c-92 0 -164.333 35.333 -217 106c-50.667 68 -76 157.333 -76 268c0 94 19.667 175.333 59 244
c54 92 136.667 138 248 138c82 0 141.333 -30.667 178 -92h2z" />
    <glyph glyph-name="oe" unicode="&#x153;" horiz-adv-x="944" 
d="M519 303l292.001 -0.000976562c-6.66699 104 -55.334 156 -146.001 156c-40 0 -74.333 -15.667 -103 -47s-43 -67.666 -43 -108.999zM807.001 163.999l88.001 -0.00292969c-2 -18.667 -9.66699 -40 -23 -64c-18 -33.333 -41.333 -59.666 -70 -78.999
c-36 -24 -83.333 -36 -142 -36c-83.333 0 -148 33.667 -194 101c-34.667 -67.333 -97.334 -100.666 -188.001 -99.999c-78 0.666992 -139.333 30 -184 88c-39.333 50.667 -59 113.334 -59 188.001s19.667 137.667 59 189c44.667 58 106 87 184 87
c88 -0.666992 153.333 -36 196 -106c46 70.667 113.667 106 203 106c74 0 130 -27.167 168 -81.5s57 -128.833 57 -223.5h-383c0 -114.667 51 -172 153 -172c38 0 70.667 12.333 98 37c22.667 21.333 35 43.333 37 66zM126.002 261.996c0 -48.667 9.66699 -90.667 29 -126
c26.667 -49.333 67.667 -74 123 -74s96.333 24.667 123 74c19.333 35.333 29 77.333 29 126s-9.66699 90.667 -29 126c-26.667 49.333 -67.667 74 -123 74s-96.333 -24.667 -123 -74c-19.333 -35.333 -29 -77.333 -29 -126z" />
    <glyph glyph-name="Scaron" unicode="&#x160;" horiz-adv-x="667" 
d="M600 508h-91.001c-2 50.667 -22 89 -60 115c-31.333 20.667 -70.666 31 -117.999 31c-109.333 0 -164 -42 -164 -126c0 -48 28.333 -78.333 85 -91l205 -47c108.667 -24.667 163 -88.667 163 -192c0 -76.667 -31.333 -134 -94 -172c-50 -30 -112.333 -45 -187 -45
c-94 0 -166.333 23 -217 69c-48.667 44 -73 104.667 -73 182h91c0 -59.333 21.667 -103.666 65 -132.999c34.667 -23.333 79 -35 133 -35c48 0 88 7.33301 120 22c45.333 20.667 68 53.667 68 99c0 36.667 -10.5 63.5 -31.5 80.5s-61.5 32.5 -121.5 46.5l-147 34
c-102 23.333 -153 79.666 -153 168.999c0 62 19.333 113 58 153c44.667 46 107.667 69 189 69c178.667 0 272 -76.333 280 -229zM266.999 929l66 -93l66 93h80l-99 -141h-93l-99 141h79z" />
    <glyph glyph-name="scaron" unicode="&#x161;" horiz-adv-x="500" 
d="M447 374l-84.9971 -0.00195312c-2 58.667 -43.333 88 -124 88c-27.333 0 -50.333 -5.33301 -69 -16c-23.333 -13.333 -35 -32.666 -35 -57.999c0 -20 7.33301 -35 22 -45c11.333 -7.33301 35.666 -15.666 72.999 -24.999l88 -22c54 -13.333 92 -30.666 114 -51.999
s33 -50 33 -86c0 -52.667 -19.333 -94.667 -58 -126s-88.334 -47 -149.001 -47c-144 0 -219 61 -225 183h85c5.33301 -71.333 51.666 -107 138.999 -107c34 0 62.5 7 85.5 21s34.5 34.667 34.5 62c0 20 -7.5 35 -22.5 45s-42.167 20 -81.5 30l-102 25
c-80.667 20 -121 62.333 -121 127c0 54 20 96.333 60 127c36 26.667 82 40 138 40c79.333 0 136 -24 170 -72c20 -28.667 30 -59.334 30 -92.001zM184.003 733.998l66 -93l66 93h80l-99 -141h-93l-99 141h79z" />
    <glyph glyph-name="Ydieresis" unicode="&#x178;" horiz-adv-x="667" 
d="M382 289v-289h-97v289l-271 429h113l206 -345l206 345h114zM298 901v-102h-91v102h91zM460 901v-102h-91v102h91z" />
    <glyph glyph-name="Zcaron" unicode="&#x17d;" horiz-adv-x="611" 
d="M588 86v-86h-565v81l440 551h-407v86h532v-84l-442 -548h442zM239 929l66 -93l66 93h80l-99 -141h-93l-99 141h79z" />
    <glyph glyph-name="zcaron" unicode="&#x17e;" horiz-adv-x="500" 
d="M460 451l-312 -378h321v-73h-438v69l315 381h-291v73h405v-72zM184 734l66 -93l66 93h80l-99 -141h-93l-99 141h79z" />
    <glyph glyph-name="florin" unicode="&#x192;" 
d="M501 722l-14.999 -78c-28 11.333 -47 17 -57 17c-41.333 0 -68.333 -32.333 -81 -97l-20 -103h114v-70h-127l-60 -327c-33.333 -180.667 -101.333 -271 -204 -271c-24 0 -44.667 4 -62 12l15 81c18.667 -9.33301 35.667 -14 51 -14c30.667 0 53.667 15.667 69 47
c12 22.667 23.667 65 35 127l64 345h-109v70h123l28 124c9.33301 40 26.666 74.333 51.999 103c30.667 32.667 66 49 106 49c26 0 52 -5 78 -15z" />
    <glyph glyph-name="circumflex" unicode="&#x2c6;" horiz-adv-x="333" 
d="M166 686l-66 -93h-79l99 141h93l99 -141h-80z" />
    <glyph glyph-name="caron" unicode="&#x2c7;" horiz-adv-x="333" 
d="M100 734l66 -93l66 93h80l-99 -141h-93l-99 141h79z" />
    <glyph glyph-name="breve" unicode="&#x2d8;" horiz-adv-x="333" 
d="M273 731h48.001c-10 -90.667 -63 -136 -159 -136c-88.667 0 -138.334 45.333 -149.001 136h49c9.33301 -28.667 22 -49 38 -61s39.333 -18 70 -18c34.667 0 60.667 9.33301 78 28c10 10.667 18.333 27.667 25 51z" />
    <glyph glyph-name="dotaccent" unicode="&#x2d9;" horiz-adv-x="333" 
d="M212 706v-102h-91v102h91z" />
    <glyph glyph-name="ring" unicode="&#x2da;" horiz-adv-x="333" 
d="M167 756c26.667 0 48.667 -8.66699 66 -26s26 -39.333 26 -66s-8.66699 -48.667 -26 -66s-39.333 -26 -66 -26s-48.667 8.66699 -66 26s-26 39.333 -26 66s8.66699 48.667 26 66s39.333 26 66 26zM115 664c0 -14.667 5 -27 15 -37s22.333 -15 37 -15s27 5 37 15
s15 22.333 15 37s-5 27 -15 37s-22.333 15 -37 15s-27 -5 -37 -15s-15 -22.333 -15 -37z" />
    <glyph glyph-name="ogonek" unicode="&#x2db;" horiz-adv-x="333" 
d="M270 -163l16.999 -39.999c-34 -14.667 -66 -22 -96 -22c-36 0 -64.667 8.66699 -86 26s-32 39.333 -32 66c0 24 6.33301 47 19 69c18.667 31.333 48.667 52.666 90 63.999h67v-4c-40 -22 -66.667 -41.667 -80 -59s-20 -39 -20 -65c0 -33.333 18.667 -50 56 -50
c18.667 0 40.334 5 65.001 15z" />
    <glyph glyph-name="tilde" unicode="&#x2dc;" horiz-adv-x="333" 
d="M287 722h49.998c-3.33301 -31.333 -14 -57.333 -32 -78s-40.667 -31 -68 -31c-14 0 -33.667 4.33301 -59 13l-26 9c-28.667 10 -49 15 -61 15c-22 0 -37.667 -14.667 -47 -44h-48c10 71.333 44.667 107 104 107c20.667 0 43.334 -5 68.001 -15l22 -9
c21.333 -8.66699 37 -13 47 -13c26.667 0 43.334 15.333 50.001 46z" />
    <glyph glyph-name="hungarumlaut" unicode="&#x2dd;" horiz-adv-x="333" 
d="M229 734l-131 -141h-67l89 141h109zM409 734l-131 -141h-67l89 141h109z" />
    <glyph glyph-name="endash" unicode="&#x2013;" 
d="M556 313v-73h-556v73h556z" />
    <glyph glyph-name="emdash" unicode="&#x2014;" horiz-adv-x="1000" 
d="M1000 313v-73h-1000v73h1000z" />
    <glyph glyph-name="quoteleft" unicode="&#x2018;" horiz-adv-x="222" 
d="M169 576v-106h-104v98c0 88.667 34.667 141 104 157v-47c-35.333 -5.33301 -53 -39.333 -53 -102h53z" />
    <glyph glyph-name="quoteright" unicode="&#x2019;" horiz-adv-x="222" 
d="M53 612v106h104v-98c0 -88.667 -34.667 -141 -104 -157v47c35.333 5.33301 53 39.333 53 102h-53z" />
    <glyph glyph-name="quotesinglbase" unicode="&#x201a;" horiz-adv-x="222" 
d="M53 0v106h104v-98c0 -88.667 -34.667 -141 -104 -157v47c35.333 5.33301 53 39.333 53 102h-53z" />
    <glyph glyph-name="quotedblleft" unicode="&#x201c;" horiz-adv-x="333" 
d="M307 576v-106h-104v98c0 88.667 34.667 141 104 157v-47c-35.333 -5.33301 -53 -39.333 -53 -102h53zM142 576v-106h-104v98c0 88.667 34.667 141 104 157v-47c-35.333 -5.33301 -53 -39.333 -53 -102h53z" />
    <glyph glyph-name="quotedblright" unicode="&#x201d;" horiz-adv-x="333" 
d="M26 612v106h104v-98c0 -88.667 -34.667 -141 -104 -157v47c35.333 5.33301 53 39.333 53 102h-53zM191 612v106h104v-98c0 -88.667 -34.667 -141 -104 -157v47c35.333 5.33301 53 39.333 53 102h-53z" />
    <glyph glyph-name="quotedblbase" unicode="&#x201e;" horiz-adv-x="333" 
d="M26 0v106h104v-98c0 -88.667 -34.667 -141 -104 -157v47c35.333 5.33301 53 39.333 53 102h-53zM191 0v106h104v-98c0 -88.667 -34.667 -141 -104 -157v47c35.333 5.33301 53 39.333 53 102h-53z" />
    <glyph glyph-name="dagger" unicode="&#x2020;" 
d="M326 431v-590h-94v590h-189v76h189v211h94v-211h188v-76h-188z" />
    <glyph glyph-name="daggerdbl" unicode="&#x2021;" 
d="M326 439v-320h188v-76h-188v-202h-94v202h-189v76h189v320h-189v76h189v203h94v-203h188v-76h-188z" />
    <glyph glyph-name="bullet" unicode="&#x2022;" horiz-adv-x="350" 
d="M333 359c0 -43.333 -15.5 -80.333 -46.5 -111s-68.167 -46 -111.5 -46s-80.333 15.167 -111 45.5s-46 67.5 -46 111.5s15.167 81.333 45.5 112s67.5 46 111.5 46c43.333 0 80.5 -15.5 111.5 -46.5s46.5 -68.167 46.5 -111.5z" />
    <glyph glyph-name="ellipsis" unicode="&#x2026;" horiz-adv-x="1000" 
d="M219 106v-106h-104v106h104zM552 106v-106h-104v106h104zM885 106v-106h-104v106h104z" />
    <glyph glyph-name="perthousand" unicode="&#x2030;" horiz-adv-x="1000" 
d="M7 539c0 43.333 15.167 80.165 45.5 110.498s67.166 45.5 110.499 45.5s80.166 -15.167 110.499 -45.5s45.5 -67.166 45.5 -110.499s-15.167 -80.166 -45.5 -110.499s-67.166 -45.5 -110.499 -45.5s-80.166 15 -110.499 45s-45.5 67 -45.5 111zM70 538.999
c0 -26 9 -48 27 -66s40 -27 66 -27c25.333 0 47.166 9.16699 65.499 27.5s27.5 40.166 27.5 65.499c0 26 -9.16699 48 -27.5 66s-40.166 27 -65.499 27c-26 0 -48 -9.16699 -66 -27.5s-27 -40.166 -27 -65.499zM319 148.999c0 43.333 15.167 80.165 45.5 110.498
s67.166 45.5 110.499 45.5s80.166 -15.167 110.499 -45.5s45.5 -67.166 45.5 -110.499s-15.167 -80.166 -45.5 -110.499s-67.166 -45.5 -110.499 -45.5s-80.166 15 -110.499 45s-45.5 67 -45.5 111zM382 148.998c0 -26 9 -48 27 -66s40 -27 66 -27
c25.333 0 47.166 9.16699 65.499 27.5s27.5 40.166 27.5 65.499c0 26 -9.16699 48 -27.5 66s-40.166 27 -65.499 27c-26 0 -48 -9.16699 -66 -27.5s-27 -40.166 -27 -65.499zM682 148.998c0 43.333 15.167 80.165 45.5 110.498s67.166 45.5 110.499 45.5
s80.166 -15.167 110.499 -45.5s45.5 -67.166 45.5 -110.499s-15.167 -80.166 -45.5 -110.499s-67.166 -45.5 -110.499 -45.5s-80.166 15 -110.499 45s-45.5 67 -45.5 111zM745 148.997c0 -26 9 -48 27 -66s40 -27 66 -27c25.333 0 47.166 9.16699 65.499 27.5
s27.5 40.166 27.5 65.499c0 26 -9.16699 48 -27.5 66s-40.166 27 -65.499 27c-26 0 -48 -9.16699 -66 -27.5s-27 -40.166 -27 -65.499zM544 702.997l-397 -722h-55l397 722h55z" />
    <glyph glyph-name="guilsinglleft" unicode="&#x2039;" horiz-adv-x="333" 
d="M245 196v-88l-157 123v92l157 123v-88l-105 -81z" />
    <glyph glyph-name="guilsinglright" unicode="&#x203a;" horiz-adv-x="333" 
d="M88 108v88l105 81l-105 81v88l157 -123v-92z" />
    <glyph glyph-name="fraction" unicode="&#x2044;" horiz-adv-x="167" 
d="M333 703l-442 -722h-57l442 722h57z" />
    <glyph glyph-name="trademark" unicode="&#x2122;" horiz-adv-x="1000" 
d="M557 718l118 -303l116 303h112v-412h-73v335h-2l-129 -335h-50l-129 335h-2v-335h-73v412h112zM373 718v-60h-127v-352h-73v352h-127v60h327z" />
    <glyph glyph-name="fi" unicode="&#xf001;" horiz-adv-x="500" 
d="M262 450h-88v-450h-88v450h-72v73h72v90c0 76.667 45.333 115 136 115c8 0 21.333 -0.666992 40 -2v-79c-14.667 1.33301 -26.667 2 -36 2c-34.667 0 -52 -20.333 -52 -61v-65h88v-73zM434 523v-523h-88v523h88zM434 618h-88v100h88v-100z" />
    <glyph glyph-name="fl" unicode="&#xf002;" horiz-adv-x="500" 
d="M262 450h-88v-450h-88v450h-72v73h72v90c0 76.667 45.333 115 136 115c8 0 21.333 -0.666992 40 -2v-79c-14.667 1.33301 -26.667 2 -36 2c-34.667 0 -52 -20.333 -52 -61v-65h88v-73zM432 718v-718h-88v718h88z" />
    <glyph glyph-name=".null" horiz-adv-x="0" 
 />
    <glyph glyph-name="nonmarkingreturn" horiz-adv-x="278" 
 />
    <glyph glyph-name="glyph231" horiz-adv-x="278" 
 />
  </font>
</defs>
</svg>
